<?xml version="1.0" standalone="no"?>
<svg xmlns="http://www.w3.org/2000/svg" xmlns:xlink="http://www.w3.org/1999/xlink" width="509pt" height="721pt" viewBox="0.00 0.00 508.79 720.95">
<g id="graph0" class="graph" transform="translate(4,716.9500122070312) scale(1)" data-name="">
<polygon fill="white" stroke="none" points="-4,4 -4,-716.95 504.79,-716.95 504.79,4 -4,4" style=""/>
<!-- S00 -->
<g id="node1" class="node" pointer-events="visible" data-name="S00">

<ellipse fill="none" stroke="black" cx="317.94" cy="-694.95" rx="27" ry="18" style=""/>
<text text-anchor="middle" x="317.94" y="-690.75" font-family="Times,serif" font-size="14.00" style="">Init</text>
</g>
<!-- S26 -->
<g id="node6" class="node" pointer-events="visible" data-name="S26">

<ellipse fill="none" stroke="black" cx="214.94" cy="-582.86" rx="90.7" ry="41.09" style=""/>
<text text-anchor="middle" x="214.94" y="-595.46" font-family="Times,serif" font-size="14.00" style="">bid &amp; !withdraw</text>
<text text-anchor="middle" x="214.94" y="-578.66" font-family="Times,serif" font-size="14.00" style=""> &amp; !auctionEnd &amp; τ</text>
<text text-anchor="middle" x="214.94" y="-561.86" font-family="Times,serif" font-size="14.00" style=""> &amp; e._ended = False</text>
</g>
<!-- S00&#45;&gt;S26 -->
<g id="edge1" class="edge" data-name="S00-&gt;S26">

<path fill="none" stroke="blue" d="M304.05,-679.1C292.05,-666.28 274.06,-647.05 257.38,-629.22" style=""/>
<polygon fill="blue" stroke="blue" points="260.26,-627.17 250.87,-622.26 255.15,-631.95 260.26,-627.17" style=""/>
<text text-anchor="middle" x="315.43" y="-646.35" font-family="Times,serif" font-size="14.00" style="">constructor</text>
</g>
<!-- S27 -->
<g id="node7" class="node" pointer-events="visible" data-name="S27">

<ellipse fill="none" stroke="black" cx="384.94" cy="-176.69" rx="90.7" ry="41.09" style=""/>
<text text-anchor="middle" x="384.94" y="-189.29" font-family="Times,serif" font-size="14.00" style="">!bid &amp; !withdraw</text>
<text text-anchor="middle" x="384.94" y="-172.49" font-family="Times,serif" font-size="14.00" style=""> &amp; auctionEnd &amp; τ</text>
<text text-anchor="middle" x="384.94" y="-155.69" font-family="Times,serif" font-size="14.00" style=""> &amp; e._ended = False</text>
</g>
<!-- S00&#45;&gt;S27 -->
<g id="edge18" class="edge" data-name="S00-&gt;S27">

<path fill="none" stroke="blue" d="M337.47,-682.06C363.94,-664.27 407.94,-628.05 407.94,-583.86 407.94,-583.86 407.94,-583.86 407.94,-311.08 407.94,-283.67 403.17,-253.54 397.97,-228.87" style=""/>
<polygon fill="blue" stroke="blue" points="401.46,-228.44 395.89,-219.42 394.62,-229.94 401.46,-228.44" style=""/>
<text text-anchor="middle" x="439.43" y="-443.27" font-family="Times,serif" font-size="14.00" style="">constructor</text>
</g>
<!-- S06 -->
<g id="node2" class="node" pointer-events="visible" data-name="S06">

<ellipse fill="none" stroke="black" cx="89.94" cy="-176.69" rx="89.89" ry="41.09" style=""/>
<text text-anchor="middle" x="89.94" y="-189.29" font-family="Times,serif" font-size="14.00" style="">!bid &amp; withdraw</text>
<text text-anchor="middle" x="89.94" y="-172.49" font-family="Times,serif" font-size="14.00" style=""> &amp; !auctionEnd &amp; τ</text>
<text text-anchor="middle" x="89.94" y="-155.69" font-family="Times,serif" font-size="14.00" style=""> &amp; e._ended = True</text>
</g>
<!-- S06&#45;&gt;S06 -->
<g id="edge9" class="edge" data-name="S06-&gt;S06">

<path fill="none" stroke="turquoise" d="M179.29,-182.21C190.5,-181.24 197.89,-179.4 197.89,-176.69 197.89,-175.03 195.15,-173.7 190.47,-172.7" style=""/>
<polygon fill="turquoise" stroke="turquoise" points="191.17,-169.26 180.78,-171.36 190.21,-176.2 191.17,-169.26" style=""/>
<text text-anchor="middle" x="224.33" y="-172.49" font-family="Times,serif" font-size="14.00" style="">withdraw</text>
</g>
<!-- S06&#45;&gt;S06 -->
<g id="edge12" class="edge" data-name="S06-&gt;S06">

<path fill="none" stroke="blue" d="M175.73,-189.26C214.97,-190.16 250.76,-185.97 250.76,-176.69 250.76,-168.3 221.62,-164.07 187.1,-163.99" style=""/>
<polygon fill="blue" stroke="blue" points="187.2,-160.49 177.24,-164.1 187.28,-167.49 187.2,-160.49" style=""/>
<text text-anchor="middle" x="254.26" y="-172.49" font-family="Times,serif" font-size="14.00" style="">τ</text>
</g>
<!-- S12 -->
<g id="node3" class="node" pointer-events="visible" data-name="S12">

<ellipse fill="none" stroke="black" cx="236.94" cy="-41.3" rx="89.89" ry="41.09" style=""/>
<text text-anchor="middle" x="236.94" y="-53.9" font-family="Times,serif" font-size="14.00" style="">!bid &amp; !withdraw</text>
<text text-anchor="middle" x="236.94" y="-37.1" font-family="Times,serif" font-size="14.00" style=""> &amp; !auctionEnd &amp; τ</text>
<text text-anchor="middle" x="236.94" y="-20.3" font-family="Times,serif" font-size="14.00" style=""> &amp; e._ended = True</text>
</g>
<!-- S06&#45;&gt;S12 -->
<g id="edge11" class="edge" data-name="S06-&gt;S12">

<path fill="none" stroke="turquoise" d="M129.72,-139.59C147.95,-123.05 169.7,-103.32 188.83,-85.96" style=""/>
<polygon fill="turquoise" stroke="turquoise" points="190.96,-88.75 196.01,-79.44 186.25,-83.57 190.96,-88.75" style=""/>
<text text-anchor="middle" x="199.38" y="-104.79" font-family="Times,serif" font-size="14.00" style="">withdraw</text>
</g>
<!-- S12&#45;&gt;S12 -->
<g id="edge10" class="edge" data-name="S12-&gt;S12">

<path fill="none" stroke="blue" d="M323.76,-52.75C336.38,-50.93 344.89,-47.11 344.89,-41.3 344.89,-37.39 341.05,-34.38 334.7,-32.28" style=""/>
<polygon fill="blue" stroke="blue" points="335.76,-28.93 325.24,-30.17 334.24,-35.76 335.76,-28.93" style=""/>
<text text-anchor="middle" x="348.39" y="-37.1" font-family="Times,serif" font-size="14.00" style="">τ</text>
</g>
<!-- S18 -->
<g id="node4" class="node" pointer-events="visible" data-name="S18">

<ellipse fill="none" stroke="black" cx="135.94" cy="-447.47" rx="90.7" ry="41.09" style=""/>
<text text-anchor="middle" x="135.94" y="-460.07" font-family="Times,serif" font-size="14.00" style="">bid &amp; withdraw</text>
<text text-anchor="middle" x="135.94" y="-443.27" font-family="Times,serif" font-size="14.00" style=""> &amp; !auctionEnd &amp; τ</text>
<text text-anchor="middle" x="135.94" y="-426.47" font-family="Times,serif" font-size="14.00" style=""> &amp; e._ended = False</text>
</g>
<!-- S18&#45;&gt;S18 -->
<g id="edge5" class="edge" data-name="S18-&gt;S18">

<path fill="none" stroke="turquoise" d="M226.03,-452.99C237.35,-452.02 244.79,-450.18 244.79,-447.47 244.79,-445.81 242.03,-444.48 237.31,-443.48" style=""/>
<polygon fill="turquoise" stroke="turquoise" points="237.91,-440.03 227.53,-442.14 236.97,-446.96 237.91,-440.03" style=""/>
<text text-anchor="middle" x="271.23" y="-451.67" font-family="Times,serif" font-size="14.00" style="">t</text>
<text text-anchor="middle" x="271.23" y="-434.87" font-family="Times,serif" font-size="14.00" style="">withdraw</text>
</g>
<!-- S18&#45;&gt;S18 -->
<g id="edge8" class="edge" data-name="S18-&gt;S18">

<path fill="none" stroke="black" d="M222.66,-460.05C261.95,-460.91 297.67,-456.72 297.67,-447.47 297.67,-439.11 268.58,-434.88 234.04,-434.77" style=""/>
<polygon fill="black" stroke="black" points="234.14,-431.27 224.17,-434.87 234.2,-438.27 234.14,-431.27" style=""/>
<text text-anchor="middle" x="306.61" y="-443.27" font-family="Times,serif" font-size="14.00" style="">bid</text>
</g>
<!-- S20 -->
<g id="node5" class="node" pointer-events="visible" data-name="S20">

<ellipse fill="none" stroke="black" cx="135.94" cy="-312.08" rx="90.7" ry="41.09" style=""/>
<text text-anchor="middle" x="135.94" y="-324.68" font-family="Times,serif" font-size="14.00" style="">!bid &amp; withdraw</text>
<text text-anchor="middle" x="135.94" y="-307.88" font-family="Times,serif" font-size="14.00" style=""> &amp; auctionEnd &amp; τ</text>
<text text-anchor="middle" x="135.94" y="-291.08" font-family="Times,serif" font-size="14.00" style=""> &amp; e._ended = False</text>
</g>
<!-- S18&#45;&gt;S20 -->
<g id="edge14" class="edge" data-name="S18-&gt;S20">

<path fill="none" stroke="turquoise" d="M135.94,-406.08C135.94,-393.02 135.94,-378.36 135.94,-364.61" style=""/>
<polygon fill="turquoise" stroke="turquoise" points="139.44,-364.83 135.94,-354.83 132.44,-364.83 139.44,-364.83" style=""/>
<text text-anchor="middle" x="139.44" y="-375.57" font-family="Times,serif" font-size="14.00" style="">τ</text>
</g>
<!-- S18&#45;&gt;S26 -->
<g id="edge19" class="edge" data-name="S18-&gt;S26">

<path fill="none" stroke="turquoise" d="M158.9,-487.22C167.41,-501.59 177.16,-518.06 186.13,-533.2" style=""/>
<polygon fill="turquoise" stroke="turquoise" points="183,-534.79 191.11,-541.61 189.03,-531.22 183,-534.79" style=""/>
<text text-anchor="middle" x="207.38" y="-510.96" font-family="Times,serif" font-size="14.00" style="">withdraw</text>
</g>
<!-- S20&#45;&gt;S06 -->
<g id="edge6" class="edge" data-name="S20-&gt;S06">

<path fill="none" stroke="blue" d="M122.14,-271.05C117.5,-257.6 112.27,-242.41 107.38,-228.26" style=""/>
<polygon fill="blue" stroke="blue" points="110.8,-227.42 104.23,-219.11 104.18,-229.7 110.8,-227.42" style=""/>
<text text-anchor="middle" x="147.82" y="-240.18" font-family="Times,serif" font-size="14.00" style="">auctionEnd</text>
</g>
<!-- S20&#45;&gt;S20 -->
<g id="edge16" class="edge" data-name="S20-&gt;S20">

<path fill="none" stroke="turquoise" d="M226.03,-317.6C237.35,-316.63 244.79,-314.79 244.79,-312.08 244.79,-310.42 242.03,-309.09 237.31,-308.09" style=""/>
<polygon fill="turquoise" stroke="turquoise" points="237.91,-304.64 227.53,-306.75 236.97,-311.57 237.91,-304.64" style=""/>
<text text-anchor="middle" x="271.23" y="-307.88" font-family="Times,serif" font-size="14.00" style="">withdraw</text>
</g>
<!-- S20&#45;&gt;S20 -->
<g id="edge20" class="edge" data-name="S20-&gt;S20">

<path fill="none" stroke="blue" d="M222.66,-324.66C261.95,-325.52 297.67,-321.33 297.67,-312.08 297.67,-303.72 268.58,-299.49 234.04,-299.38" style=""/>
<polygon fill="blue" stroke="blue" points="234.14,-295.88 224.17,-299.48 234.2,-302.88 234.14,-295.88" style=""/>
<text text-anchor="middle" x="301.17" y="-307.88" font-family="Times,serif" font-size="14.00" style="">τ</text>
</g>
<!-- S20&#45;&gt;S27 -->
<g id="edge13" class="edge" data-name="S20-&gt;S27">

<path fill="none" stroke="turquoise" d="M193.7,-280.14C230.49,-260.43 278.33,-234.8 316.96,-214.11" style=""/>
<polygon fill="turquoise" stroke="turquoise" points="318.58,-217.21 325.74,-209.4 315.27,-211.04 318.58,-217.21" style=""/>
<text text-anchor="middle" x="301.38" y="-240.18" font-family="Times,serif" font-size="14.00" style="">withdraw</text>
</g>
<!-- S26&#45;&gt;S18 -->
<g id="edge7" class="edge" data-name="S26-&gt;S18">

<path fill="none" stroke="black" d="M168.54,-547.25C161.44,-540.12 154.88,-532.14 150.05,-523.56 145.99,-516.33 143.06,-508.14 140.97,-499.91" style=""/>
<polygon fill="black" stroke="black" points="144.41,-499.26 138.91,-490.21 137.56,-500.72 144.41,-499.26" style=""/>
<text text-anchor="middle" x="159.89" y="-510.96" font-family="Times,serif" font-size="14.00" style="">bid</text>
</g>
<!-- S26&#45;&gt;S26 -->
<g id="edge2" class="edge" data-name="S26-&gt;S26">

<path fill="none" stroke="turquoise" d="M305.03,-588.38C316.35,-587.41 323.79,-585.57 323.79,-582.86 323.79,-581.2 321.03,-579.87 316.31,-578.87" style=""/>
<polygon fill="turquoise" stroke="turquoise" points="316.91,-575.42 306.53,-577.53 315.97,-582.35 316.91,-575.42" style=""/>
<text text-anchor="middle" x="327.29" y="-578.66" font-family="Times,serif" font-size="14.00" style="">τ</text>
</g>
<!-- S26&#45;&gt;S26 -->
<g id="edge3" class="edge" data-name="S26-&gt;S26">

<path fill="none" stroke="black" d="M301.8,-595.43C324.58,-594.68 341.79,-590.49 341.79,-582.86 341.79,-576.53 329.99,-572.57 312.99,-570.97" style=""/>
<polygon fill="black" stroke="black" points="313.51,-567.5 303.31,-570.38 313.08,-574.49 313.51,-567.5" style=""/>
<text text-anchor="middle" x="350.74" y="-578.66" font-family="Times,serif" font-size="14.00" style="">bid</text>
</g>
<!-- S26&#45;&gt;S27 -->
<g id="edge17" class="edge" data-name="S26-&gt;S27">

<path fill="none" stroke="turquoise" d="M275.58,-551.92C300.46,-536.5 327.1,-515.3 342.94,-488.76 391.23,-407.87 393.45,-294.37 389.81,-229.2" style=""/>
<polygon fill="turquoise" stroke="turquoise" points="393.32,-229.27 389.19,-219.51 386.33,-229.71 393.32,-229.27" style=""/>
<text text-anchor="middle" x="386.44" y="-375.57" font-family="Times,serif" font-size="14.00" style="">τ</text>
</g>
<!-- S27&#45;&gt;S12 -->
<g id="edge15" class="edge" data-name="S27-&gt;S12">

<path fill="none" stroke="blue" d="M344.89,-139.59C326.55,-123.05 304.65,-103.32 285.39,-85.96" style=""/>
<polygon fill="blue" stroke="blue" points="287.92,-83.53 278.15,-79.43 283.24,-88.73 287.92,-83.53" style=""/>
<text text-anchor="middle" x="350.82" y="-104.79" font-family="Times,serif" font-size="14.00" style="">auctionEnd</text>
</g>
<!-- S27&#45;&gt;S27 -->
<g id="edge4" class="edge" data-name="S27-&gt;S27">

<path fill="none" stroke="blue" d="M472.49,-188.14C485.22,-186.32 493.79,-182.5 493.79,-176.69 493.79,-172.78 489.92,-169.77 483.52,-167.67" style=""/>
<polygon fill="blue" stroke="blue" points="484.49,-164.3 473.97,-165.56 482.98,-171.13 484.49,-164.3" style=""/>
<text text-anchor="middle" x="497.29" y="-172.49" font-family="Times,serif" font-size="14.00" style="">τ</text>
</g>
</g>
</svg>