<?xml version="1.0" standalone="no"?>
<svg xmlns="http://www.w3.org/2000/svg" xmlns:xlink="http://www.w3.org/1999/xlink" width="438pt" height="491pt" viewBox="0.00 0.00 437.89 490.53">
<g id="graph0" class="graph" transform="translate(4,486.5299987792969) scale(1)" data-name="">
<polygon fill="white" stroke="none" points="-4,4 -4,-486.53 433.89,-486.53 433.89,4 -4,4"/>
<!-- S00 -->
<g id="node1" class="node" pointer-events="visible" data-name="S00">

<ellipse fill="none" stroke="black" cx="271.94" cy="-464.53" rx="27" ry="18"/>
<text text-anchor="middle" x="271.94" y="-460.33" font-family="Times,serif" font-size="14.00">Init</text>
</g>
<!-- S10 -->
<g id="node4" class="node" pointer-events="visible" data-name="S10">

<ellipse fill="none" stroke="black" cx="168.94" cy="-364.31" rx="89.89" ry="29.33"/>
<text text-anchor="middle" x="168.94" y="-368.51" font-family="Times,serif" font-size="14.00">bid &amp; !withdraw</text>
<text text-anchor="middle" x="168.94" y="-351.71" font-family="Times,serif" font-size="14.00"> &amp; !auctionEnd &amp; τ</text>
</g>
<!-- S00&#45;&gt;S10 -->
<g id="edge4" class="edge" data-name="S00-&gt;S10">

<path fill="none" stroke="blue" d="M257.19,-449.45C243.68,-436.57 223.14,-416.99 205.27,-399.95"/>
<polygon fill="blue" stroke="blue" points="208.03,-397.75 198.38,-393.38 203.2,-402.81 208.03,-397.75"/>
<text text-anchor="middle" x="263.43" y="-415.93" font-family="Times,serif" font-size="14.00">constructor</text>
</g>
<!-- S12 -->
<g id="node5" class="node" pointer-events="visible" data-name="S12">

<ellipse fill="none" stroke="black" cx="314.94" cy="-29.42" rx="89.89" ry="29.33"/>
<text text-anchor="middle" x="314.94" y="-33.62" font-family="Times,serif" font-size="14.00">!bid &amp; !withdraw</text>
<text text-anchor="middle" x="314.94" y="-16.82" font-family="Times,serif" font-size="14.00"> &amp; !auctionEnd &amp; τ</text>
</g>
<!-- S00&#45;&gt;S12 -->
<g id="edge1" class="edge" data-name="S00-&gt;S12">

<path fill="none" stroke="blue" d="M292.59,-452.61C318.88,-437.04 360.94,-405.81 360.94,-365.31 360.94,-365.31 360.94,-365.31 360.94,-140.05 360.94,-114.8 350.44,-88.64 339.47,-68.22"/>
<polygon fill="blue" stroke="blue" points="342.63,-66.69 334.66,-59.7 336.53,-70.13 342.63,-66.69"/>
<text text-anchor="middle" x="392.43" y="-248.48" font-family="Times,serif" font-size="14.00">constructor</text>
</g>
<!-- S02 -->
<g id="node2" class="node" pointer-events="visible" data-name="S02">

<ellipse fill="none" stroke="black" cx="89.94" cy="-252.68" rx="89.89" ry="29.33"/>
<text text-anchor="middle" x="89.94" y="-256.88" font-family="Times,serif" font-size="14.00">bid &amp; withdraw</text>
<text text-anchor="middle" x="89.94" y="-240.08" font-family="Times,serif" font-size="14.00"> &amp; !auctionEnd &amp; τ</text>
</g>
<!-- S02&#45;&gt;S02 -->
<g id="edge2" class="edge" data-name="S02-&gt;S02">

<path fill="none" stroke="turquoise" d="M178.87,-257.26C190.32,-256.47 197.89,-254.94 197.89,-252.68 197.89,-251.3 195.08,-250.19 190.29,-249.36"/>
<polygon fill="turquoise" stroke="turquoise" points="190.7,-245.88 180.38,-248.26 189.93,-252.84 190.7,-245.88"/>
<text text-anchor="middle" x="224.33" y="-256.88" font-family="Times,serif" font-size="14.00">t</text>
<text text-anchor="middle" x="224.33" y="-240.08" font-family="Times,serif" font-size="14.00">withdraw</text>
</g>
<!-- S02&#45;&gt;S02 -->
<g id="edge11" class="edge" data-name="S02-&gt;S02">

<path fill="none" stroke="black" d="M174.47,-263.02C214.2,-263.87 250.76,-260.42 250.76,-252.68 250.76,-245.66 220.73,-242.18 185.53,-242.21"/>
<polygon fill="black" stroke="black" points="185.94,-238.71 175.98,-242.32 186.02,-245.71 185.94,-238.71"/>
<text text-anchor="middle" x="259.71" y="-248.48" font-family="Times,serif" font-size="14.00" style="">bid</text>
</g>
<!-- S06 -->
<g id="node3" class="node" pointer-events="visible" data-name="S06">

<ellipse fill="none" stroke="black" cx="97.94" cy="-141.05" rx="89.89" ry="29.33"/>
<text text-anchor="middle" x="97.94" y="-145.25" font-family="Times,serif" font-size="14.00">!bid &amp; withdraw</text>
<text text-anchor="middle" x="97.94" y="-128.45" font-family="Times,serif" font-size="14.00"> &amp; !auctionEnd &amp; τ</text>
</g>
<!-- S02&#45;&gt;S06 -->
<g id="edge14" class="edge" data-name="S02-&gt;S06">

<path fill="none" stroke="turquoise" d="M92.05,-222.87C92.96,-210.41 94.04,-195.61 95.02,-182.11"/>
<polygon fill="turquoise" stroke="turquoise" points="98.51,-182.4 95.75,-172.17 91.53,-181.89 98.51,-182.4"/>
<text text-anchor="middle" x="98.44" y="-192.66" font-family="Times,serif" font-size="14.00">τ</text>
</g>
<!-- S02&#45;&gt;S10 -->
<g id="edge7" class="edge" data-name="S02-&gt;S10">

<path fill="none" stroke="turquoise" d="M110.05,-281.58C119.79,-295.1 131.63,-311.53 142.13,-326.1"/>
<polygon fill="turquoise" stroke="turquoise" points="139.23,-328.07 147.92,-334.13 144.91,-323.97 139.23,-328.07"/>
<text text-anchor="middle" x="161.38" y="-304.29" font-family="Times,serif" font-size="14.00">withdraw</text>
</g>
<!-- S06&#45;&gt;S06 -->
<g id="edge3" class="edge" data-name="S06-&gt;S06">

<path fill="none" stroke="turquoise" d="M186.87,-145.63C198.32,-144.84 205.89,-143.31 205.89,-141.05 205.89,-139.67 203.08,-138.56 198.29,-137.73"/>
<polygon fill="turquoise" stroke="turquoise" points="198.7,-134.25 188.38,-136.63 197.93,-141.21 198.7,-134.25"/>
<text text-anchor="middle" x="232.33" y="-136.85" font-family="Times,serif" font-size="14.00">withdraw</text>
</g>
<!-- S06&#45;&gt;S06 -->
<g id="edge8" class="edge" data-name="S06-&gt;S06">

<path fill="none" stroke="blue" d="M182.47,-151.39C222.2,-152.23 258.76,-148.79 258.76,-141.05 258.76,-134.03 228.73,-130.54 193.53,-130.58"/>
<polygon fill="blue" stroke="blue" points="193.94,-127.08 183.98,-130.69 194.02,-134.08 193.94,-127.08"/>
<text text-anchor="middle" x="262.26" y="-136.85" font-family="Times,serif" font-size="14.00" style="">τ</text>
</g>
<!-- S06&#45;&gt;S12 -->
<g id="edge6" class="edge" data-name="S06-&gt;S12">

<path fill="none" stroke="turquoise" d="M145.83,-115.85C178.66,-99.27 222.4,-77.17 257.16,-59.61"/>
<polygon fill="turquoise" stroke="turquoise" points="258.48,-62.86 265.83,-55.23 255.32,-56.62 258.48,-62.86"/>
<text text-anchor="middle" x="245.38" y="-81.03" font-family="Times,serif" font-size="14.00">withdraw</text>
</g>
<!-- S10&#45;&gt;S02 -->
<g id="edge12" class="edge" data-name="S10-&gt;S02">

<path fill="none" stroke="black" d="M123.99,-338.64C116,-332.47 108.51,-325.2 103.05,-316.89 98.54,-310.02 95.54,-301.88 93.55,-293.78"/>
<polygon fill="black" stroke="black" points="96.99,-293.13 91.65,-283.97 90.11,-294.46 96.99,-293.13"/>
<text text-anchor="middle" x="112.89" y="-304.29" font-family="Times,serif" font-size="14.00">bid</text>
</g>
<!-- S10&#45;&gt;S10 -->
<g id="edge9" class="edge" data-name="S10-&gt;S10">

<path fill="none" stroke="black" d="M257.87,-368.9C269.32,-368.1 276.89,-366.57 276.89,-364.31 276.89,-362.93 274.08,-361.82 269.29,-360.99"/>
<polygon fill="black" stroke="black" points="269.7,-357.52 259.38,-359.89 268.93,-364.47 269.7,-357.52"/>
<text text-anchor="middle" x="285.83" y="-360.11" font-family="Times,serif" font-size="14.00">bid</text>
</g>
<!-- S10&#45;&gt;S10 -->
<g id="edge13" class="edge" data-name="S10-&gt;S10">

<path fill="none" stroke="turquoise" d="M253.41,-374.72C276.9,-374.24 294.89,-370.77 294.89,-364.31 294.89,-358.91 282.32,-355.6 264.47,-354.38"/>
<polygon fill="turquoise" stroke="turquoise" points="265.06,-350.9 254.92,-353.97 264.76,-357.89 265.06,-350.9"/>
<text text-anchor="middle" x="298.39" y="-360.11" font-family="Times,serif" font-size="14.00" style="">τ</text>
</g>
<!-- S10&#45;&gt;S12 -->
<g id="edge10" class="edge" data-name="S10-&gt;S12">

<path fill="none" stroke="turquoise" d="M225.73,-341.23C251.64,-328.09 280.04,-308.72 295.94,-282.09 335.33,-216.17 329.7,-122.57 322.22,-70.07"/>
<polygon fill="turquoise" stroke="turquoise" points="325.71,-69.74 320.74,-60.39 318.79,-70.8 325.71,-69.74"/>
<text text-anchor="middle" x="327.44" y="-192.66" font-family="Times,serif" font-size="14.00">τ</text>
</g>
<!-- S12&#45;&gt;S12 -->
<g id="edge5" class="edge" data-name="S12-&gt;S12">

<path fill="none" stroke="blue" d="M400.46,-39.01C413.8,-37.57 422.89,-34.38 422.89,-29.42 422.89,-26.01 418.59,-23.43 411.57,-21.69"/>
<polygon fill="blue" stroke="blue" points="412.39,-18.27 401.95,-20.07 411.23,-25.18 412.39,-18.27"/>
<text text-anchor="middle" x="426.39" y="-25.22" font-family="Times,serif" font-size="14.00">τ</text>
</g>
</g>
</svg>