<?xml version="1.0" standalone="no"?>
<svg xmlns="http://www.w3.org/2000/svg" xmlns:xlink="http://www.w3.org/1999/xlink" width="918pt" height="593pt" viewBox="0.00 0.00 918.01 592.72">
<g id="graph0" class="graph" transform="translate(4,588.719970703125) scale(1)" data-name="">
<polygon fill="white" stroke="none" points="-4,4 -4,-588.72 914.01,-588.72 914.01,4 -4,4" style=""/>
<!-- S00 -->
<g id="node1" class="node" pointer-events="visible" data-name="S00">

<ellipse fill="none" stroke="black" cx="393.91" cy="-566.72" rx="27" ry="18" style=""/>
<text text-anchor="middle" x="393.91" y="-562.52" font-family="Times,serif" font-size="14.00" style="">Init</text>
</g>
<!-- S174 -->
<g id="node3" class="node" pointer-events="visible" data-name="S174">

<ellipse fill="none" stroke="black" cx="393.91" cy="-430.87" rx="141.73" ry="65.11" style=""/>
<text text-anchor="middle" x="393.91" y="-460.27" font-family="Times,serif" font-size="14.00" style="">transferOwnership &amp; deposit</text>
<text text-anchor="middle" x="393.91" y="-443.47" font-family="Times,serif" font-size="14.00" style=""> &amp; setGoalReached &amp; !withdraw</text>
<text text-anchor="middle" x="393.91" y="-426.67" font-family="Times,serif" font-size="14.00" style=""> &amp; !withdrawAll &amp; !close</text>
<text text-anchor="middle" x="393.91" y="-409.87" font-family="Times,serif" font-size="14.00" style=""> &amp; enableRefunds &amp; !refund</text>
<text text-anchor="middle" x="393.91" y="-393.07" font-family="Times,serif" font-size="14.00" style=""> &amp; τ</text>
</g>
<!-- S00&#45;&gt;S174 -->
<g id="edge9" class="edge" data-name="S00-&gt;S174">

<path fill="none" stroke="blue" d="M393.91,-548.22C393.91,-537.45 393.91,-522.81 393.91,-507.55" style=""/>
<polygon fill="blue" stroke="blue" points="397.41,-507.89 393.91,-497.89 390.41,-507.89 397.41,-507.89" style=""/>
<text text-anchor="middle" x="425.4" y="-518.12" font-family="Times,serif" font-size="14.00" style="">constructor</text>
</g>
<!-- S116 -->
<g id="node2" class="node" pointer-events="visible" data-name="S116">

<ellipse fill="none" stroke="black" cx="144.91" cy="-247.96" rx="141.73" ry="65.11" style=""/>
<text text-anchor="middle" x="144.91" y="-277.36" font-family="Times,serif" font-size="14.00" style="">transferOwnership &amp; deposit</text>
<text text-anchor="middle" x="144.91" y="-260.56" font-family="Times,serif" font-size="14.00" style=""> &amp; !setGoalReached &amp; withdraw</text>
<text text-anchor="middle" x="144.91" y="-243.76" font-family="Times,serif" font-size="14.00" style=""> &amp; withdrawAll &amp; close</text>
<text text-anchor="middle" x="144.91" y="-226.96" font-family="Times,serif" font-size="14.00" style=""> &amp; !enableRefunds &amp; !refund</text>
<text text-anchor="middle" x="144.91" y="-210.16" font-family="Times,serif" font-size="14.00" style=""> &amp; τ</text>
</g>
<!-- S116&#45;&gt;S116 -->
<g id="edge1" class="edge" data-name="S116-&gt;S116">

<path fill="none" stroke="black" d="M286.31,-254.49C297.56,-253.06 304.53,-250.89 304.53,-247.96 304.53,-246.18 301.94,-244.67 297.37,-243.45" style=""/>
<polygon fill="black" stroke="black" points="298.26,-240.05 287.79,-241.7 297.01,-246.94 298.26,-240.05" style=""/>
<text text-anchor="middle" x="330.97" y="-243.76" font-family="Times,serif" font-size="14.00" style="">withdraw</text>
</g>
<!-- S116&#45;&gt;S116 -->
<g id="edge7" class="edge" data-name="S116-&gt;S116">

<path fill="none" stroke="blue" d="M282.1,-265.04C323.87,-264.35 357.41,-258.66 357.41,-247.96 357.41,-238.27 329.86,-232.69 293.61,-231.21" style=""/>
<polygon fill="blue" stroke="blue" points="293.71,-227.71 283.62,-230.93 293.51,-234.71 293.71,-227.71" style=""/>
<text text-anchor="middle" x="409.5" y="-268.96" font-family="Times,serif" font-size="14.00" style="">deposit</text>
<text text-anchor="middle" x="409.5" y="-252.16" font-family="Times,serif" font-size="14.00" style="">t</text>
<text text-anchor="middle" x="409.5" y="-235.36" font-family="Times,serif" font-size="14.00" style="">transferOwnership</text>
<text text-anchor="middle" x="409.5" y="-218.56" font-family="Times,serif" font-size="14.00" style="">withdrawAll</text>
</g>
<!-- S475 -->
<g id="node5" class="node" pointer-events="visible" data-name="S475">

<ellipse fill="none" stroke="black" cx="144.91" cy="-65.05" rx="144.83" ry="65.11" style=""/>
<text text-anchor="middle" x="144.91" y="-94.45" font-family="Times,serif" font-size="14.00" style="">transferOwnership &amp; !deposit</text>
<text text-anchor="middle" x="144.91" y="-77.65" font-family="Times,serif" font-size="14.00" style=""> &amp; !setGoalReached &amp; !withdraw</text>
<text text-anchor="middle" x="144.91" y="-60.85" font-family="Times,serif" font-size="14.00" style=""> &amp; !withdrawAll &amp; !close</text>
<text text-anchor="middle" x="144.91" y="-44.05" font-family="Times,serif" font-size="14.00" style=""> &amp; !enableRefunds &amp; !refund</text>
<text text-anchor="middle" x="144.91" y="-27.25" font-family="Times,serif" font-size="14.00" style=""> &amp; τ</text>
</g>
<!-- S116&#45;&gt;S475 -->
<g id="edge6" class="edge" data-name="S116-&gt;S475">

<path fill="none" stroke="blue" d="M144.91,-182.42C144.91,-169.26 144.91,-155.3 144.91,-141.79" style=""/>
<polygon fill="blue" stroke="blue" points="148.41,-142.09 144.91,-132.09 141.41,-142.09 148.41,-142.09" style=""/>
<text text-anchor="middle" x="159.3" y="-152.31" font-family="Times,serif" font-size="14.00" style="">close</text>
</g>
<!-- S174&#45;&gt;S116 -->
<g id="edge2" class="edge" data-name="S174-&gt;S116">

<path fill="none" stroke="blue" d="M318.87,-375.35C290.45,-354.7 257.92,-331.07 228.74,-309.87" style=""/>
<polygon fill="blue" stroke="blue" points="231.18,-307.31 221.03,-304.26 227.06,-312.97 231.18,-307.31" style=""/>
<text text-anchor="middle" x="322.39" y="-335.22" font-family="Times,serif" font-size="14.00" style="">setGoalReached</text>
</g>
<!-- S174&#45;&gt;S174 -->
<g id="edge4" class="edge" data-name="S174-&gt;S174">

<path fill="none" stroke="blue" d="M532.92,-444.5C545.57,-441.66 553.53,-437.12 553.53,-430.87 553.53,-426.67 549.94,-423.24 543.75,-420.58" style=""/>
<polygon fill="blue" stroke="blue" points="544.96,-417.29 534.37,-417.69 542.89,-423.98 544.96,-417.29" style=""/>
<text text-anchor="middle" x="605.62" y="-443.47" font-family="Times,serif" font-size="14.00" style="">deposit</text>
<text text-anchor="middle" x="605.62" y="-426.67" font-family="Times,serif" font-size="14.00" style="">t</text>
<text text-anchor="middle" x="605.62" y="-409.87" font-family="Times,serif" font-size="14.00" style="">transferOwnership</text>
</g>
<!-- S401 -->
<g id="node4" class="node" pointer-events="visible" data-name="S401">

<ellipse fill="none" stroke="black" cx="642.91" cy="-247.96" rx="144.83" ry="65.11" style=""/>
<text text-anchor="middle" x="642.91" y="-277.36" font-family="Times,serif" font-size="14.00" style="">transferOwnership &amp; !deposit</text>
<text text-anchor="middle" x="642.91" y="-260.56" font-family="Times,serif" font-size="14.00" style=""> &amp; !setGoalReached &amp; !withdraw</text>
<text text-anchor="middle" x="642.91" y="-243.76" font-family="Times,serif" font-size="14.00" style=""> &amp; !withdrawAll &amp; !close</text>
<text text-anchor="middle" x="642.91" y="-226.96" font-family="Times,serif" font-size="14.00" style=""> &amp; !enableRefunds &amp; refund</text>
<text text-anchor="middle" x="642.91" y="-210.16" font-family="Times,serif" font-size="14.00" style=""> &amp; τ</text>
</g>
<!-- S174&#45;&gt;S401 -->
<g id="edge3" class="edge" data-name="S174-&gt;S401">

<path fill="none" stroke="blue" d="M468.96,-375.35C497.13,-354.88 529.33,-331.49 558.31,-310.43" style=""/>
<polygon fill="blue" stroke="blue" points="560.33,-313.28 566.37,-304.58 556.22,-307.62 560.33,-313.28" style=""/>
<text text-anchor="middle" x="566.51" y="-335.22" font-family="Times,serif" font-size="14.00" style="">enableRefunds</text>
</g>
<!-- S401&#45;&gt;S401 -->
<g id="edge8" class="edge" data-name="S401-&gt;S401">

<path fill="none" stroke="blue" d="M785.07,-261.53C797.82,-258.69 805.83,-254.17 805.83,-247.96 805.83,-243.79 802.21,-240.38 795.97,-237.73" style=""/>
<polygon fill="blue" stroke="blue" points="797.11,-234.42 786.52,-234.84 795.06,-241.11 797.11,-234.42" style=""/>
<text text-anchor="middle" x="857.92" y="-260.56" font-family="Times,serif" font-size="14.00" style="">refund</text>
<text text-anchor="middle" x="857.92" y="-243.76" font-family="Times,serif" font-size="14.00" style="">t</text>
<text text-anchor="middle" x="857.92" y="-226.96" font-family="Times,serif" font-size="14.00" style="">transferOwnership</text>
</g>
<!-- S475&#45;&gt;S475 -->
<g id="edge5" class="edge" data-name="S475-&gt;S475">

<path fill="none" stroke="blue" d="M287.07,-78.62C299.82,-75.78 307.83,-71.26 307.83,-65.05 307.83,-60.88 304.21,-57.47 297.97,-54.82" style=""/>
<polygon fill="blue" stroke="blue" points="299.11,-51.51 288.52,-51.93 297.06,-58.2 299.11,-51.51" style=""/>
<text text-anchor="middle" x="359.92" y="-69.25" font-family="Times,serif" font-size="14.00" style="">t</text>
<text text-anchor="middle" x="359.92" y="-52.45" font-family="Times,serif" font-size="14.00" style="">transferOwnership</text>
</g>
</g>
</svg>