<?xml version="1.0" standalone="no"?>
<svg xmlns="http://www.w3.org/2000/svg" xmlns:xlink="http://www.w3.org/1999/xlink" width="624pt" height="236pt" viewBox="0.00 0.00 624.46 236.00">
<g id="graph0" class="graph" transform="translate(4,232) scale(1)" data-name="">
<polygon fill="white" stroke="none" points="-4,4 -4,-232 620.46,-232 620.46,4 -4,4"/>
<!-- S00 -->
<g id="node4" class="node" pointer-events="visible" data-name="S00">

<ellipse fill="none" stroke="black" cx="193.81" cy="-210" rx="27" ry="18"/>
<text text-anchor="middle" x="193.81" y="-205.8" font-family="Times,serif" font-size="14.00">S00</text>
</g>
<!-- S01 -->
<g id="node1" class="node" pointer-events="visible" data-name="S01">

<ellipse fill="none" stroke="black" cx="193.81" cy="-114" rx="36.56" ry="18"/>
<text text-anchor="middle" x="193.81" y="-109.8" font-family="Times,serif" font-size="14.00">Active</text>
</g>
<!-- S00&#45;&gt;S01 -->
<g id="edge1" class="edge" data-name="S00-&gt;S01">

<path fill="none" stroke="black" d="M193.81,-191.76C193.81,-178.33 193.81,-159.39 193.81,-143.68"/>
<polygon fill="black" stroke="black" points="197.31,-143.96 193.81,-133.96 190.31,-143.96 197.31,-143.96"/>
<text text-anchor="middle" x="225.29" y="-161.4" font-family="Times,serif" font-size="14.00">constructor</text>
</g>
<!-- S01&#45;&gt;S01 -->
<g id="edge2" class="edge" data-name="S01-&gt;S01">

<path fill="none" stroke="blue" d="M225.33,-123.62C237.97,-124.16 248.58,-120.95 248.58,-114 248.58,-109.33 243.79,-106.35 236.81,-105.06"/>
<polygon fill="blue" stroke="blue" points="237.03,-101.57 226.84,-104.47 236.62,-108.55 237.03,-101.57"/>
<text text-anchor="middle" x="292.51" y="-126.6" font-family="Times,serif" font-size="14.00">deposit</text>
<text text-anchor="middle" x="292.51" y="-109.8" font-family="Times,serif" font-size="14.00">t</text>
<text text-anchor="middle" x="292.51" y="-93" font-family="Times,serif" font-size="14.00">transferPrimary</text>
</g>
<!-- S02 -->
<g id="node2" class="node" pointer-events="visible" data-name="S02">

<ellipse fill="none" stroke="black" cx="51.81" cy="-18" rx="51.61" ry="18"/>
<text text-anchor="middle" x="51.81" y="-13.8" font-family="Times,serif" font-size="14.00">Refunding</text>
</g>
<!-- S01&#45;&gt;S02 -->
<g id="edge7" class="edge" data-name="S01-&gt;S02">

<path fill="none" stroke="blue" d="M172.55,-98.93C149.26,-83.51 111.61,-58.59 84.55,-40.67"/>
<polygon fill="blue" stroke="blue" points="86.63,-37.86 76.36,-35.26 82.77,-43.69 86.63,-37.86"/>
<text text-anchor="middle" x="169.4" y="-58.2" font-family="Times,serif" font-size="14.00">enableRefunds</text>
</g>
<!-- S03 -->
<g id="node3" class="node" pointer-events="visible" data-name="S03">

<ellipse fill="none" stroke="black" cx="335.81" cy="-18" rx="37.72" ry="18"/>
<text text-anchor="middle" x="335.81" y="-13.8" font-family="Times,serif" font-size="14.00">Closed</text>
</g>
<!-- S01&#45;&gt;S03 -->
<g id="edge6" class="edge" data-name="S01-&gt;S03">

<path fill="none" stroke="blue" d="M215.06,-98.93C238.91,-83.14 277.79,-57.41 304.97,-39.41"/>
<polygon fill="blue" stroke="blue" points="306.73,-42.44 313.14,-34 302.87,-36.61 306.73,-42.44"/>
<text text-anchor="middle" x="295.19" y="-58.2" font-family="Times,serif" font-size="14.00">close</text>
</g><g id="edge3" class="edge" data-name="S02-&gt;S02" data-comment="S01-&gt;S03">

<path fill="none" stroke="rgb(0, 0, 255)" d="M102.63,-22.04C113.63,-21.64 121.61,-20.3 121.61,-18 121.61,-16.6 118.65,-15.55 113.84,-14.86"/>
<polygon fill="blue" stroke="blue" points="114.39,-11.39 104.14,-14.08 113.83,-18.37 114.39,-11.39"/>
<text text-anchor="middle" x="165.54" y="-22.2" font-family="Times,serif" font-size="14.00">t</text>
<text text-anchor="middle" x="165.54" y="-5.4" font-family="Times,serif" font-size="14.00">transferPrimary</text>
</g><g id="edge5" class="edge" data-name="S02-&gt;S02" data-comment="S01-&gt;S03">

<path fill="none" stroke="black" d="M99.73,-25.05C147.39,-28.07 209.47,-25.72 209.47,-18 209.47,-10.88 156.71,-8.33 111.13,-10.34"/>
<polygon fill="black" stroke="black" points="111.04,-6.84 101.24,-10.86 111.41,-13.83 111.04,-6.84"/>
<text text-anchor="middle" x="235.9" y="-13.8" font-family="Times,serif" font-size="14.00" style="">withdraw</text>
</g>
<!-- S02&#45;&gt;S02 -->

<!-- S02&#45;&gt;S02 -->
<g id="edge4" class="edge" data-name="S03-&gt;S03" data-comment="S02-&gt;S02">

<path fill="none" stroke="rgb(0, 0, 255)" d="M372.87,-22.15C383.48,-21.98 391.67,-20.6 391.67,-18 391.67,-16.46 388.78,-15.34 384.22,-14.66"/>
<polygon fill="blue" stroke="blue" points="384.6,-11.17 374.38,-13.96 384.11,-18.16 384.6,-11.17"/>
<text text-anchor="middle" x="435.59" y="-22.2" font-family="Times,serif" font-size="14.00">t</text>
<text text-anchor="middle" x="435.59" y="-5.4" font-family="Times,serif" font-size="14.00">transferPrimary</text>
</g><g id="edge8" class="edge" data-name="S03-&gt;S03" data-comment="S02-&gt;S02">

<path fill="none" stroke="black" d="M371.42,-24.5C415.29,-28.32 479.52,-26.15 479.52,-18 479.52,-10.53 425.63,-8.09 382.85,-10.67"/>
<polygon fill="black" stroke="black" points="382.65,-7.17 372.93,-11.39 383.16,-14.16 382.65,-7.17"/>
<text text-anchor="middle" x="538.99" y="-13.8" font-family="Times,serif" font-size="14.00" style="">beneficiaryWithdraw</text>
</g>
<!-- S03&#45;&gt;S03 -->

<!-- S03&#45;&gt;S03 -->

</g>
</svg>