<?xml version="1.0" standalone="no"?>
<svg xmlns="http://www.w3.org/2000/svg" xmlns:xlink="http://www.w3.org/1999/xlink" width="508pt" height="488pt" viewBox="0.00 0.00 508.49 488">
<g id="graph0" class="graph" transform="translate(71.52007177230388,434.2884831367572) scale(0.7937005332711153)" data-name="">
<polygon fill="white" stroke="none" points="-4,4 -4,-484 504.49,-484 504.49,4 -4,4"/>
<!-- S04 -->
<g id="node4" class="node" pointer-events="visible" data-name="S04">

<ellipse fill="none" stroke="black" cx="394.1" cy="-195.6" rx="81.29" ry="18"/>
<text text-anchor="middle" x="394.1" y="-191.4" font-family="Times,serif" font-size="14.00">Ended &amp; HB=0x0</text>
</g>
<!-- S04&#45;&gt;S04 -->
<g id="edge14" class="edge" data-name="S04-&gt;S04">

<path fill="none" stroke="blue" d="M467.79,-203.61C482.76,-202.74 493.49,-200.07 493.49,-195.6 493.49,-192.36 487.83,-190.06 478.99,-188.71"/>
<polygon fill="blue" stroke="blue" points="479.59,-185.25 469.29,-187.74 478.89,-192.22 479.59,-185.25"/>
<text text-anchor="middle" x="496.99" y="-191.4" font-family="Times,serif" font-size="14.00">τ</text>
</g>
<!-- S05 -->
<g id="node5" class="node" pointer-events="visible" data-name="S05">

<ellipse fill="none" stroke="black" cx="142.1" cy="-18" rx="73.76" ry="18"/>
<text text-anchor="middle" x="142.1" y="-13.8" font-family="Times,serif" font-size="14.00">Ended &amp; HB=A</text>
</g>
<!-- S04&#45;&gt;S05 -->
<g id="edge1" class="edge" data-name="S04-&gt;S05">

<path fill="none" stroke="black" d="M387.07,-177.55C376.73,-154.41 355.31,-113.17 325.1,-88.8 291.13,-61.41 245.23,-43.94 207.9,-33.33"/>
<polygon fill="black" stroke="black" points="209.14,-30.04 198.57,-30.78 207.3,-36.79 209.14,-30.04"/>
<text text-anchor="middle" x="367.04" y="-102.6" font-family="Times,serif" font-size="14.00">bid</text>
</g>
<!-- S06 -->
<g id="node6" class="node" pointer-events="visible" data-name="S06">

<ellipse fill="none" stroke="black" cx="143.1" cy="-106.8" rx="77.2" ry="18"/>
<text text-anchor="middle" x="143.1" y="-102.6" font-family="Times,serif" font-size="14.00">Ended &amp; HB!=A</text>
</g>
<!-- S04&#45;&gt;S06 -->
<g id="edge18" class="edge" data-name="S04-&gt;S06">

<path fill="none" stroke="black" d="M351.52,-179.88C308.53,-165.01 242.05,-142.02 195.77,-126.01"/>
<polygon fill="black" stroke="black" points="197.07,-122.76 186.48,-122.8 194.79,-129.38 197.07,-122.76"/>
<text text-anchor="middle" x="300.04" y="-147" font-family="Times,serif" font-size="14.00">bid</text>
</g>
<!-- S05&#45;&gt;S05 -->
<g id="edge12" class="edge" data-name="S05-&gt;S05">

<path fill="none" stroke="blue" d="M214.51,-21.83C226.07,-21.27 233.98,-19.99 233.98,-18 233.98,-16.75 230.89,-15.79 225.75,-15.1"/>
<polygon fill="blue" stroke="blue" points="226.28,-11.63 216.02,-14.29 225.7,-18.61 226.28,-11.63"/>
<text text-anchor="middle" x="237.48" y="-13.8" font-family="Times,serif" font-size="14.00">τ</text>
</g>
<!-- S05&#45;&gt;S05 -->

<!-- S05&#45;&gt;S06 -->
<g id="edge21" class="edge" data-name="S05-&gt;S06">

<path fill="none" stroke="black" d="M142.3,-36.41C142.43,-48.16 142.62,-63.94 142.77,-77.48"/>
<polygon fill="black" stroke="black" points="139.27,-77.18 142.88,-87.14 146.27,-77.1 139.27,-77.18"/>
<text text-anchor="middle" x="152.04" y="-58.2" font-family="Times,serif" font-size="14.00">bid</text>
</g>
<!-- S02 -->
<g id="node2" class="node" pointer-events="visible" data-name="S02">

<ellipse fill="none" stroke="black" cx="77.1" cy="-284.4" rx="77.2" ry="18"/>
<text text-anchor="middle" x="77.1" y="-280.2" font-family="Times,serif" font-size="14.00">!Ended &amp; HB=A</text>
</g><g id="edge8" class="edge" data-name="S02-&gt;S02" data-comment="S02">

<path fill="none" stroke="rgb(0, 0, 255)" d="M152.82,-288.2C164.36,-287.62 172.2,-286.35 172.2,-284.4 172.2,-283.18 169.13,-282.23 164.02,-281.55"/>
<polygon fill="blue" stroke="blue" points="164.59,-278.08 154.33,-280.73 164,-285.06 164.59,-278.08"/>
<text text-anchor="middle" x="175.7" y="-280.2" font-family="Times,serif" font-size="14.00">τ</text>
</g><g id="edge13" class="edge" data-name="S02-&gt;S02" data-comment="S02">

<path fill="none" stroke="black" d="M146.4,-292.72C170.6,-292.83 190.2,-290.06 190.2,-284.4 190.2,-279.67 176.5,-276.96 157.87,-276.26"/>
<polygon fill="black" stroke="black" points="157.96,-272.76 147.91,-276.1 157.86,-279.76 157.96,-272.76"/>
<text text-anchor="middle" x="216.63" y="-288.6" font-family="Times,serif" font-size="14.00" style="">bid</text>
<text text-anchor="middle" x="216.63" y="-271.8" font-family="Times,serif" font-size="14.00" style="">withdraw</text>
</g>
<!-- S02&#45;&gt;S05 -->
<g id="edge2" class="edge" data-name="S02-&gt;S05">

<path fill="none" stroke="black" d="M60.94,-266.35C49.58,-253.11 35.34,-233.68 29.1,-213.6 24.35,-198.32 26.66,-193.41 29.1,-177.6 35.39,-136.7 33.92,-123.09 57.1,-88.8 69.82,-69.98 89.07,-53.58 106.04,-41.41"/>
<polygon fill="black" stroke="black" points="107.69,-44.52 113.93,-35.96 103.72,-38.76 107.69,-44.52"/>
<text text-anchor="middle" x="66.98" y="-147" font-family="Times,serif" font-size="14.00">auctionEnd</text>
</g>
<!-- S02&#45;&gt;S02 -->

<!-- S02&#45;&gt;S02 -->

<!-- S03 -->
<g id="node3" class="node" pointer-events="visible" data-name="S03">

<ellipse fill="none" stroke="black" cx="118.1" cy="-195.6" rx="80.13" ry="18"/>
<text text-anchor="middle" x="118.1" y="-191.4" font-family="Times,serif" font-size="14.00">!Ended &amp; HB!=A</text>
</g>
<!-- S02&#45;&gt;S03 -->
<g id="edge10" class="edge" data-name="S02-&gt;S03">

<path fill="none" stroke="black" d="M72.09,-266.25C69.98,-255.75 69.05,-242.31 74.21,-231.6 76.15,-227.57 78.81,-223.85 81.86,-220.48"/>
<polygon fill="black" stroke="black" points="84.08,-223.2 88.99,-213.81 79.29,-218.09 84.08,-223.2"/>
<text text-anchor="middle" x="84.04" y="-235.8" font-family="Times,serif" font-size="14.00">bid</text>
</g>
<!-- S03&#45;&gt;S02 -->
<g id="edge9" class="edge" data-name="S03-&gt;S02">

<path fill="none" stroke="black" d="M111.37,-213.58C107.2,-223.78 101.62,-236.96 96.1,-248.4 94.86,-250.96 93.53,-253.6 92.17,-256.23"/>
<polygon fill="black" stroke="black" points="89.23,-254.32 87.61,-264.79 95.41,-257.61 89.23,-254.32"/>
<text text-anchor="middle" x="113.04" y="-235.8" font-family="Times,serif" font-size="14.00">bid</text>
</g><g id="edge11" class="edge" data-name="S03-&gt;S03" data-comment="S03-&gt;S02">

<path fill="none" stroke="rgb(0, 0, 255)" d="M196.78,-199.38C208.49,-198.79 216.41,-197.53 216.41,-195.6 216.41,-194.39 213.32,-193.45 208.14,-192.77"/>
<polygon fill="blue" stroke="blue" points="208.54,-189.29 198.29,-191.95 207.96,-196.27 208.54,-189.29"/>
<text text-anchor="middle" x="219.91" y="-191.4" font-family="Times,serif" font-size="14.00">τ</text>
</g><g id="edge22" class="edge" data-name="S03-&gt;S03" data-comment="S03-&gt;S02">

<path fill="none" stroke="black" d="M189.94,-203.92C214.57,-203.99 234.41,-201.22 234.41,-195.6 234.41,-190.88 220.42,-188.17 201.34,-187.46"/>
<polygon fill="black" stroke="black" points="201.51,-183.97 191.45,-187.3 201.39,-190.96 201.51,-183.97"/>
<text text-anchor="middle" x="260.85" y="-199.8" font-family="Times,serif" font-size="14.00" style="">bid</text>
<text text-anchor="middle" x="260.85" y="-183" font-family="Times,serif" font-size="14.00" style="">withdraw</text>
</g>
<!-- S03&#45;&gt;S03 -->

<!-- S03&#45;&gt;S03 -->

<!-- S03&#45;&gt;S06 -->
<g id="edge3" class="edge" data-name="S03-&gt;S06">

<path fill="none" stroke="black" d="M123.04,-177.45C126.44,-165.64 131.04,-149.67 134.97,-136.01"/>
<polygon fill="black" stroke="black" points="138.26,-137.24 137.66,-126.66 131.53,-135.31 138.26,-137.24"/>
<text text-anchor="middle" x="164.98" y="-147" font-family="Times,serif" font-size="14.00">auctionEnd</text>
</g>
<!-- S06&#45;&gt;S05 -->
<g id="edge20" class="edge" data-name="S06-&gt;S05">

<path fill="none" stroke="black" d="M131.09,-88.77C127.88,-83.29 124.85,-77.02 123.21,-70.8 121.3,-63.58 121.38,-61.24 123.21,-54 123.86,-51.4 124.76,-48.79 125.8,-46.22"/>
<polygon fill="black" stroke="black" points="128.83,-47.99 130.03,-37.47 122.52,-44.95 128.83,-47.99"/>
<text text-anchor="middle" x="133.04" y="-58.2" font-family="Times,serif" font-size="14.00">bid</text>
</g>
<!-- S06&#45;&gt;S06 -->
<g id="edge5" class="edge" data-name="S06-&gt;S06">

<path fill="none" stroke="blue" d="M218.82,-110.6C230.36,-110.02 238.2,-108.75 238.2,-106.8 238.2,-105.58 235.13,-104.63 230.02,-103.95"/>
<polygon fill="blue" stroke="blue" points="230.59,-100.48 220.33,-103.13 230,-107.46 230.59,-100.48"/>
<text text-anchor="middle" x="241.7" y="-102.6" font-family="Times,serif" font-size="14.00">τ</text>
</g>
<!-- S06&#45;&gt;S06 -->

<!-- S01 -->
<g id="node1" class="node" pointer-events="visible" data-name="S01">

<ellipse fill="none" stroke="black" cx="286.1" cy="-373.2" rx="84.72" ry="18"/>
<text text-anchor="middle" x="286.1" y="-369" font-family="Times,serif" font-size="14.00">!Ended &amp; HB=0x0</text>
</g><g id="edge16" class="edge" data-name="S05-&gt;S05" data-comment="S01">

<path fill="none" stroke="black" d="M208.34,-26.31C232.36,-26.52 251.98,-23.75 251.98,-18 251.98,-13.2 238.27,-10.47 219.74,-9.83"/>
<polygon fill="black" stroke="black" points="219.9,-6.33 209.86,-9.7 219.81,-13.33 219.9,-6.33"/>
<text text-anchor="middle" x="278.42" y="-22.2" font-family="Times,serif" font-size="14.00" style="">bid</text>
<text text-anchor="middle" x="278.42" y="-5.4" font-family="Times,serif" font-size="14.00" style="">withdraw</text>
</g>
<!-- S01&#45;&gt;S04 -->
<g id="edge19" class="edge" data-name="S01-&gt;S04">

<path fill="none" stroke="black" d="M296.65,-355.04C315.52,-324.36 355.18,-259.88 377.65,-223.34"/>
<polygon fill="black" stroke="black" points="380.45,-225.47 382.71,-215.12 374.49,-221.8 380.45,-225.47"/>
<text text-anchor="middle" x="382.98" y="-280.2" font-family="Times,serif" font-size="14.00">auctionEnd</text>
</g>
<!-- S01&#45;&gt;S02 -->
<g id="edge4" class="edge" data-name="S01-&gt;S02">

<path fill="none" stroke="black" d="M248.73,-356.68C213.85,-342.2 161.67,-320.52 124,-304.88"/>
<polygon fill="black" stroke="black" points="125.76,-301.82 115.19,-301.22 123.08,-308.29 125.76,-301.82"/>
<text text-anchor="middle" x="210.04" y="-324.6" font-family="Times,serif" font-size="14.00">bid</text>
</g>
<!-- S01&#45;&gt;S03 -->
<g id="edge6" class="edge" data-name="S01-&gt;S03">

<path fill="none" stroke="black" d="M285.97,-354.87C284.92,-332.16 279.97,-292.19 259.1,-266.4 238.83,-241.36 207.31,-224.58 179.21,-213.76"/>
<polygon fill="black" stroke="black" points="180.66,-210.56 170.06,-210.42 178.25,-217.14 180.66,-210.56"/>
<text text-anchor="middle" x="286.04" y="-280.2" font-family="Times,serif" font-size="14.00">bid</text>
</g>
<!-- S01&#45;&gt;S01 -->
<g id="edge7" class="edge" data-name="S01-&gt;S01">

<path fill="none" stroke="blue" d="M362.62,-381.18C377.85,-380.28 388.71,-377.62 388.71,-373.2 388.71,-369.99 382.97,-367.7 374,-366.35"/>
<polygon fill="blue" stroke="blue" points="374.42,-362.88 364.12,-365.37 373.73,-369.84 374.42,-362.88"/>
<text text-anchor="middle" x="392.21" y="-369" font-family="Times,serif" font-size="14.00">τ</text>
</g><g id="edge15" class="edge" data-name="S06-&gt;S06" data-comment="S01-&gt;S01">

<path fill="none" stroke="black" d="M212.4,-115.12C236.6,-115.23 256.2,-112.46 256.2,-106.8 256.2,-102.07 242.5,-99.36 223.87,-98.66"/>
<polygon fill="black" stroke="black" points="223.96,-95.16 213.91,-98.5 223.86,-102.16 223.96,-95.16"/>
<text text-anchor="middle" x="282.63" y="-111" font-family="Times,serif" font-size="14.00" style="">bid</text>
<text text-anchor="middle" x="282.63" y="-94.2" font-family="Times,serif" font-size="14.00" style="">withdraw</text>
</g>
<!-- S00 -->
<g id="node7" class="node" pointer-events="visible" data-name="S00">

<ellipse fill="none" stroke="black" cx="286.1" cy="-462" rx="27" ry="18"/>
<text text-anchor="middle" x="286.1" y="-457.8" font-family="Times,serif" font-size="14.00">S00</text>
</g>
<!-- S00&#45;&gt;S01 -->
<g id="edge17" class="edge" data-name="S00-&gt;S01">

<path fill="none" stroke="blue" d="M286.1,-443.85C286.1,-432.16 286.1,-416.39 286.1,-402.82"/>
<polygon fill="blue" stroke="blue" points="289.6,-403.12 286.1,-393.12 282.6,-403.12 289.6,-403.12"/>
<text text-anchor="middle" x="317.59" y="-413.4" font-family="Times,serif" font-size="14.00">constructor</text>
</g>
</g>
</svg>