<?xml version="1.0" standalone="no"?>
<svg xmlns="http://www.w3.org/2000/svg" xmlns:xlink="http://www.w3.org/1999/xlink" width="584pt" height="379pt" viewBox="0.00 0.00 583.81 378.89">
<g id="graph0" class="graph" transform="translate(4,374.8900146484375) scale(1)" data-name="">
<polygon fill="white" stroke="none" points="-4,4 -4,-374.89 579.81,-374.89 579.81,4 -4,4" style=""/>
<!-- S00 -->
<g id="node1" class="node" pointer-events="visible" data-name="S00">

<ellipse fill="none" stroke="black" cx="287.4" cy="-352.89" rx="27" ry="18" style=""/>
<text text-anchor="middle" x="287.4" y="-348.69" font-family="Times,serif" font-size="14.00" style="">Init</text>
</g>
<!-- S03 -->
<g id="node2" class="node" pointer-events="visible" data-name="S03">

<ellipse fill="none" stroke="black" cx="287.4" cy="-252.68" rx="136.21" ry="29.33" style=""/>
<text text-anchor="middle" x="287.4" y="-256.88" font-family="Times,serif" font-size="14.00" style="">choicePlayer1 &amp; choicePlayer2</text>
<text text-anchor="middle" x="287.4" y="-240.08" font-family="Times,serif" font-size="14.00" style=""> &amp; !determineWinner</text>
</g>
<!-- S00&#45;&gt;S03 -->
<g id="edge5" class="edge" data-name="S00-&gt;S03">

<path fill="none" stroke="blue" d="M287.4,-334.79C287.4,-323.42 287.4,-308.01 287.4,-293.68" style=""/>
<polygon fill="blue" stroke="blue" points="290.9,-294.02 287.4,-284.02 283.9,-294.02 290.9,-294.02" style=""/>
<text text-anchor="middle" x="318.89" y="-304.29" font-family="Times,serif" font-size="14.00" style="">constructor</text>
</g>
<!-- S05 -->
<g id="node3" class="node" pointer-events="visible" data-name="S05">

<ellipse fill="none" stroke="black" cx="139.4" cy="-141.05" rx="139.31" ry="29.33" style=""/>
<text text-anchor="middle" x="139.4" y="-145.25" font-family="Times,serif" font-size="14.00" style="">choicePlayer1 &amp; !choicePlayer2</text>
<text text-anchor="middle" x="139.4" y="-128.45" font-family="Times,serif" font-size="14.00" style=""> &amp; !determineWinner</text>
</g>
<!-- S03&#45;&gt;S05 -->
<g id="edge4" class="edge" data-name="S03-&gt;S05">

<path fill="none" stroke="blue" d="M250.06,-224.01C230.6,-209.6 206.62,-191.84 185.97,-176.54" style=""/>
<polygon fill="blue" stroke="blue" points="188.07,-173.74 177.95,-170.6 183.91,-179.37 188.07,-173.74" style=""/>
<text text-anchor="middle" x="262.05" y="-192.66" font-family="Times,serif" font-size="14.00" style="">choicePlayer2</text>
</g>
<!-- S07 -->
<g id="node5" class="node" pointer-events="visible" data-name="S07">

<ellipse fill="none" stroke="black" cx="436.4" cy="-141.05" rx="139.31" ry="29.33" style=""/>
<text text-anchor="middle" x="436.4" y="-145.25" font-family="Times,serif" font-size="14.00" style="">!choicePlayer1 &amp; choicePlayer2</text>
<text text-anchor="middle" x="436.4" y="-128.45" font-family="Times,serif" font-size="14.00" style=""> &amp; !determineWinner</text>
</g>
<!-- S03&#45;&gt;S07 -->
<g id="edge3" class="edge" data-name="S03-&gt;S07">

<path fill="none" stroke="blue" d="M325,-224.01C344.68,-209.54 368.95,-191.68 389.81,-176.33" style=""/>
<polygon fill="blue" stroke="blue" points="391.62,-179.35 397.6,-170.6 387.47,-173.71 391.62,-179.35" style=""/>
<text text-anchor="middle" x="411.05" y="-192.66" font-family="Times,serif" font-size="14.00" style="">choicePlayer1</text>
</g>
<!-- S06 -->
<g id="node4" class="node" pointer-events="visible" data-name="S06">

<ellipse fill="none" stroke="black" cx="287.4" cy="-29.42" rx="142.9" ry="29.33" style=""/>
<text text-anchor="middle" x="287.4" y="-33.62" font-family="Times,serif" font-size="14.00" style="">!choicePlayer1 &amp; !choicePlayer2</text>
<text text-anchor="middle" x="287.4" y="-16.82" font-family="Times,serif" font-size="14.00" style=""> &amp; determineWinner</text>
</g>
<!-- S05&#45;&gt;S06 -->
<g id="edge2" class="edge" data-name="S05-&gt;S06">

<path fill="none" stroke="blue" d="M176.75,-112.38C196.21,-97.97 220.18,-80.21 240.84,-64.91" style=""/>
<polygon fill="blue" stroke="blue" points="242.9,-67.74 248.85,-58.97 238.73,-62.11 242.9,-67.74" style=""/>
<text text-anchor="middle" x="262.05" y="-81.03" font-family="Times,serif" font-size="14.00" style="">choicePlayer1</text>
</g>
<!-- S06&#45;&gt;S06 -->
<g id="edge6" class="edge" data-name="S06-&gt;S06">

<path fill="none" stroke="blue" d="M424.56,-38.09C438.91,-36.39 448.1,-33.5 448.1,-29.42 448.1,-26.54 443.56,-24.26 435.87,-22.57" style=""/>
<polygon fill="blue" stroke="blue" points="436.48,-19.12 426.05,-20.99 435.37,-26.03 436.48,-19.12" style=""/>
<text text-anchor="middle" x="497.08" y="-25.22" font-family="Times,serif" font-size="14.00" style="">determineWinner</text>
</g>
<!-- S07&#45;&gt;S06 -->
<g id="edge1" class="edge" data-name="S07-&gt;S06">

<path fill="none" stroke="blue" d="M398.8,-112.38C379.13,-97.91 354.86,-80.05 334,-64.7" style=""/>
<polygon fill="blue" stroke="blue" points="336.34,-62.08 326.21,-58.97 332.19,-67.71 336.34,-62.08" style=""/>
<text text-anchor="middle" x="411.05" y="-81.03" font-family="Times,serif" font-size="14.00" style="">choicePlayer2</text>
</g>
</g>
</svg>