<?xml version="1.0" standalone="no"?>
<svg xmlns="http://www.w3.org/2000/svg" xmlns:xlink="http://www.w3.org/1999/xlink" width="1564pt" height="666pt" viewBox="0.00 0.00 1564.05 665.60">
<g id="graph0" class="graph" transform="translate(-136.0723438308646,698.2787980575558) scale(1.2599210383274564)" data-name="">
<polygon fill="white" stroke="none" points="-4,4 -4,-661.6 1560.05,-661.6 1560.05,4 -4,4"/>
<!-- S01 -->
<g id="node1" class="node" pointer-events="visible" data-name="S01">

<ellipse fill="none" stroke="black" cx="1156" cy="-550.8" rx="123.85" ry="18"/>
<text text-anchor="middle" x="1156" y="-546.6" font-family="Times,serif" font-size="14.00">CrowdsaleDeployedToChain</text>
</g>
<!-- S01&#45;&gt;S01 -->
<g id="edge17" class="edge" data-name="S01-&gt;S01">

<path fill="none" stroke="blue" d="M1269.38,-558.35C1286.26,-557.18 1297.68,-554.66 1297.68,-550.8 1297.68,-547.88 1291.12,-545.72 1280.6,-544.34"/>
<polygon fill="blue" stroke="blue" points="1281.18,-540.88 1270.89,-543.39 1280.5,-547.85 1281.18,-540.88"/>
<text text-anchor="middle" x="1301.18" y="-546.6" font-family="Times,serif" font-size="14.00">τ</text>
</g>
<!-- S06 -->
<g id="node6" class="node" pointer-events="visible" data-name="S06">

<ellipse fill="none" stroke="black" cx="1088" cy="-195.6" rx="126.77" ry="18"/>
<text text-anchor="middle" x="1088" y="-191.4" font-family="Times,serif" font-size="14.00">Successful_EPX_ge_Hardcap</text>
</g>
<!-- S01&#45;&gt;S06 -->
<g id="edge1" class="edge" data-name="S01-&gt;S06">

<path fill="none" stroke="black" d="M1201.49,-533.62C1284.62,-501.2 1448.39,-422.55 1401,-320.4 1368.19,-249.68 1284.58,-219.05 1212.03,-205.93"/>
<polygon fill="black" stroke="black" points="1212.88,-202.53 1202.44,-204.3 1211.71,-209.43 1212.88,-202.53"/>
<text text-anchor="middle" x="1463.02" y="-369" font-family="Times,serif" font-size="14.00">checkGoalReached</text>
</g>
<!-- S02 -->
<g id="node2" class="node" pointer-events="visible" data-name="S02">

<ellipse fill="none" stroke="black" cx="889" cy="-462" rx="81.12" ry="18"/>
<text text-anchor="middle" x="889" y="-457.8" font-family="Times,serif" font-size="14.00">CrowdsaleIsSetup</text>
</g>
<!-- S01&#45;&gt;S02 -->
<g id="edge16" class="edge" data-name="S01-&gt;S02">

<path fill="none" stroke="black" d="M1107.03,-533.88C1060.94,-518.9 992.01,-496.49 944.04,-480.89"/>
<polygon fill="black" stroke="black" points="945.26,-477.61 934.67,-477.85 943.1,-484.27 945.26,-477.61"/>
<text text-anchor="middle" x="1091.71" y="-502.2" font-family="Times,serif" font-size="14.00">setupCrowdsale</text>
</g>
<!-- S06&#45;&gt;S06 -->
<g id="edge30" class="edge" data-name="S06-&gt;S06">

<path fill="none" stroke="turquoise" d="M1214.18,-197.81C1225.66,-197.35 1232.89,-196.61 1232.89,-195.6 1232.89,-194.98 1230.21,-194.47 1225.51,-194.06"/>
<polygon fill="turquoise" stroke="turquoise" points="1225.88,-190.57 1215.69,-193.48 1225.47,-197.56 1225.88,-190.57"/>
<text text-anchor="middle" x="1286.91" y="-191.4" font-family="Times,serif" font-size="14.00">checkGoalReached</text>
</g>
<!-- S06&#45;&gt;S06 -->
<g id="edge8" class="edge" data-name="S02-&gt;S02" data-comment="S06-&gt;S06">

<path fill="none" stroke="rgb(0, 0, 0)" d="M969.66,-464.48C980.84,-464.07 988.31,-463.24 988.31,-462 988.31,-461.24 985.53,-460.64 980.84,-460.19"/>
<polygon fill="black" stroke="black" points="981.36,-456.72 971.17,-459.61 980.94,-463.71 981.36,-456.72"/>
<text text-anchor="middle" x="1006.58" y="-466.2" font-family="Times,serif" font-size="14.00">buy</text>
<text text-anchor="middle" x="1006.58" y="-449.4" font-family="Times,serif" font-size="14.00">refund</text>
</g><g id="edge28" class="edge" data-name="S02-&gt;S02" data-comment="S06-&gt;S06">

<path fill="none" stroke="turquoise" d="M966.78,-467.53C997.94,-467.75 1024.85,-465.9 1024.85,-462 1024.85,-458.59 1004.25,-456.75 978.22,-456.48" style=""/>
<polygon fill="turquoise" stroke="turquoise" points="978.29,-452.98 968.29,-456.47 978.28,-459.98 978.29,-452.98"/>
<text text-anchor="middle" x="1078.87" y="-457.8" font-family="Times,serif" font-size="14.00" style="">checkGoalReached</text>
</g>
<!-- S06&#45;&gt;S06 -->
<g id="edge47" class="edge" data-name="S02-&gt;S02" data-comment="S06-&gt;S06">

<path fill="none" stroke="blue" d="M964.3,-469.11C1037.86,-472.04 1132.9,-469.67 1132.9,-462 1132.9,-454.72 1047.27,-452.21 975.66,-454.49" style=""/>
<polygon fill="blue" stroke="blue" points="975.69,-450.99 965.82,-454.84 975.94,-457.98 975.69,-450.99"/>
<text text-anchor="middle" x="1136.4" y="-457.8" font-family="Times,serif" font-size="14.00" style="">τ</text>
</g>
<!-- S03 -->
<g id="node3" class="node" pointer-events="visible" data-name="S03">

<ellipse fill="none" stroke="black" cx="522" cy="-373.2" rx="124.45" ry="18"/>
<text text-anchor="middle" x="522" y="-369" font-family="Times,serif" font-size="14.00">InProgress_Eth_low_Softcap</text>
</g>
<!-- S06&#45;&gt;S03 -->
<g id="edge37" class="edge" data-name="S06-&gt;S03">

<path fill="none" stroke="turquoise" d="M1102.71,-213.67C1106.49,-219.06 1110.04,-225.27 1112,-231.6 1121.47,-262.16 1122.77,-280.99 1099,-302.4 1066.02,-332.09 805.94,-353.94 646.42,-364.7"/>
<polygon fill="turquoise" stroke="turquoise" points="646.37,-361.19 636.63,-365.35 646.84,-368.18 646.37,-361.19"/>
<text text-anchor="middle" x="1173.02" y="-280.2" font-family="Times,serif" font-size="14.00">checkGoalReached</text>
</g>
<!-- S04 -->
<g id="node4" class="node" pointer-events="visible" data-name="S04">

<ellipse fill="none" stroke="black" cx="736" cy="-18" rx="118.7" ry="18"/>
<text text-anchor="middle" x="736" y="-13.8" font-family="Times,serif" font-size="14.00">InProgress_Eth_ge_Softcap</text>
</g>
<!-- S06&#45;&gt;S04 -->
<g id="edge45" class="edge" data-name="S06-&gt;S04">

<path fill="none" stroke="turquoise" d="M1120.21,-177.83C1134.24,-168.24 1145.71,-155.59 1137,-142.8 1101.83,-91.19 933.94,-53.19 826.85,-33.71"/>
<polygon fill="turquoise" stroke="turquoise" points="827.67,-30.3 817.21,-31.98 826.43,-37.19 827.67,-30.3"/>
<text text-anchor="middle" x="1171.02" y="-102.6" font-family="Times,serif" font-size="14.00">checkGoalReached</text>
</g>
<!-- S06&#45;&gt;S02 -->
<g id="edge23" class="edge" data-name="S06-&gt;S02">

<path fill="none" stroke="turquoise" d="M1196.81,-205.13C1232.01,-210.28 1264.87,-218.51 1276,-231.6 1331.97,-297.43 1289.12,-311.58 1278,-337.2 1254.99,-390.22 1235.41,-401.64 1183,-426 1147.82,-442.35 1051.94,-451.59 979.15,-456.41"/>
<polygon fill="turquoise" stroke="turquoise" points="978.95,-452.92 969.19,-457.05 979.4,-459.91 978.95,-452.92"/>
<text text-anchor="middle" x="1343.02" y="-324.6" font-family="Times,serif" font-size="14.00">checkGoalReached</text>
</g>
<!-- S07 -->
<g id="node7" class="node" pointer-events="visible" data-name="S07">

<ellipse fill="none" stroke="black" cx="766" cy="-284.4" rx="118.69" ry="18"/>
<text text-anchor="middle" x="766" y="-280.2" font-family="Times,serif" font-size="14.00">Successful_Eth_ge_Softcap</text>
</g>
<!-- S06&#45;&gt;S07 -->
<g id="edge42" class="edge" data-name="S06-&gt;S07">

<path fill="none" stroke="turquoise" d="M1043.44,-212.85C1030.41,-218.22 1016.34,-224.62 1003.95,-231.6 992.94,-237.81 992.66,-243.52 981,-248.4 950.66,-261.11 916.11,-269.22 883.71,-274.4"/>
<polygon fill="turquoise" stroke="turquoise" points="883.22,-270.93 873.85,-275.88 884.26,-277.85 883.22,-270.93"/>
<text text-anchor="middle" x="1058.02" y="-235.8" font-family="Times,serif" font-size="14.00">checkGoalReached</text>
</g>
<!-- S05 -->
<g id="node5" class="node" pointer-events="visible" data-name="S05">

<ellipse fill="none" stroke="black" cx="402" cy="-106.8" rx="134.32" ry="18"/>
<text text-anchor="middle" x="402" y="-102.6" font-family="Times,serif" font-size="14.00">Unsuccessful_Eth_low_Softcap</text>
</g>
<!-- S06&#45;&gt;S05 -->
<g id="edge9" class="edge" data-name="S06-&gt;S05">

<path fill="none" stroke="turquoise" d="M1058.22,-177.71C1048.74,-172.13 1038.3,-165.77 1028.95,-159.6 1018.4,-152.64 1017.9,-147.07 1006,-142.8 963.75,-127.62 708.6,-117.11 543.72,-111.8"/>
<polygon fill="turquoise" stroke="turquoise" points="544.12,-108.31 534.02,-111.49 543.9,-115.3 544.12,-108.31"/>
<text text-anchor="middle" x="1083.02" y="-147" font-family="Times,serif" font-size="14.00">checkGoalReached</text>
</g>
<!-- S03&#45;&gt;S06 -->
<g id="edge50" class="edge" data-name="S03-&gt;S06">

<path fill="none" stroke="turquoise" d="M517.38,-354.94C512.28,-331.55 507.47,-290.02 529.95,-266.4 545.07,-250.51 813.9,-222.54 972.83,-207.27"/>
<polygon fill="turquoise" stroke="turquoise" points="972.95,-210.78 982.57,-206.34 972.28,-203.81 972.95,-210.78"/>
<text text-anchor="middle" x="584.02" y="-280.2" font-family="Times,serif" font-size="14.00">checkGoalReached</text>
</g>
<!-- S03&#45;&gt;S03 -->
<g id="edge2" class="edge" data-name="S03-&gt;S03">

<path fill="none" stroke="turquoise" d="M645.86,-375.41C657.13,-374.95 664.22,-374.21 664.22,-373.2 664.22,-372.6 661.72,-372.1 657.33,-371.69"/>
<polygon fill="turquoise" stroke="turquoise" points="657.57,-368.2 647.37,-371.09 657.14,-375.19 657.57,-368.2"/>
<text text-anchor="middle" x="718.25" y="-369" font-family="Times,serif" font-size="14.00">checkGoalReached</text>
</g>
<!-- S03&#45;&gt;S03 -->
<g id="edge18" class="edge" data-name="S03-&gt;S03">

<path fill="none" stroke="blue" d="M641.3,-378.62C706.92,-379.27 772.27,-377.46 772.27,-373.2 772.27,-369.18 714.11,-367.34 652.44,-367.69" style=""/>
<polygon fill="blue" stroke="blue" points="652.79,-364.19 642.82,-367.77 652.85,-371.19 652.79,-364.19"/>
<text text-anchor="middle" x="775.77" y="-369" font-family="Times,serif" font-size="14.00" style="">τ</text>
</g>
<!-- S03&#45;&gt;S03 -->
<g id="edge38" class="edge" data-name="S03-&gt;S03">

<path fill="none" stroke="black" d="M635.12,-381.05C710.21,-382.69 790.27,-380.07 790.27,-373.2 790.27,-366.68 718.13,-363.99 646.59,-365.13" style=""/>
<polygon fill="black" stroke="black" points="646.57,-361.63 636.63,-365.32 646.7,-368.63 646.57,-361.63"/>
<text text-anchor="middle" x="808.54" y="-377.4" font-family="Times,serif" font-size="14.00" style="">buy</text>
<text text-anchor="middle" x="808.54" y="-360.6" font-family="Times,serif" font-size="14.00" style="">refund</text>
</g>
<!-- S03&#45;&gt;S04 -->
<g id="edge14" class="edge" data-name="S03-&gt;S04">

<path fill="none" stroke="turquoise" d="M478.1,-355.96C464.14,-350.41 448.75,-343.91 435,-337.2 407.3,-323.68 399.69,-320.86 375,-302.4 356.37,-288.47 357.34,-277.68 337,-266.4 255.46,-221.17 190.99,-287.37 133.95,-213.6 124.16,-200.94 127.32,-192.16 133.95,-177.6 169.05,-100.52 200.3,-85.29 279,-54 336.47,-31.15 492.65,-23.15 606.47,-20.38"/>
<polygon fill="turquoise" stroke="turquoise" points="606.27,-23.89 616.18,-20.16 606.11,-16.89 606.27,-23.89"/>
<text text-anchor="middle" x="188.02" y="-191.4" font-family="Times,serif" font-size="14.00">checkGoalReached</text>
</g>
<!-- S03&#45;&gt;S02 -->
<g id="edge36" class="edge" data-name="S03-&gt;S02">

<path fill="none" stroke="turquoise" d="M544.1,-391.31C560.52,-403.08 583.95,-417.98 606.95,-426 667.97,-447.28 740.39,-455.95 796.56,-459.34"/>
<polygon fill="turquoise" stroke="turquoise" points="796.24,-462.82 806.42,-459.88 796.62,-455.83 796.24,-462.82"/>
<text text-anchor="middle" x="661.02" y="-413.4" font-family="Times,serif" font-size="14.00">checkGoalReached</text>
</g>
<!-- S03&#45;&gt;S07 -->
<g id="edge12" class="edge" data-name="S03-&gt;S07">

<path fill="none" stroke="turquoise" d="M614.36,-360.82C640.79,-355.61 669.15,-348.07 694,-337.2 709.78,-330.3 725.52,-319.54 738.23,-309.61"/>
<polygon fill="turquoise" stroke="turquoise" points="740.16,-312.55 745.74,-303.55 735.76,-307.11 740.16,-312.55"/>
<text text-anchor="middle" x="778.02" y="-324.6" font-family="Times,serif" font-size="14.00">checkGoalReached</text>
</g>
<!-- S03&#45;&gt;S05 -->
<g id="edge27" class="edge" data-name="S03-&gt;S05">

<path fill="none" stroke="turquoise" d="M508.84,-354.82C490.1,-331.3 453.5,-289.6 413,-266.4 386.97,-251.49 366.11,-272.27 347.95,-248.4 343.43,-242.46 344.27,-238.1 347.95,-231.6 355.63,-218.06 368.87,-226.21 378,-213.6 394.3,-191.11 399.78,-159.41 401.51,-136.59"/>
<polygon fill="turquoise" stroke="turquoise" points="404.99,-136.93 402.03,-126.75 398,-136.55 404.99,-136.93"/>
<text text-anchor="middle" x="402.02" y="-235.8" font-family="Times,serif" font-size="14.00">checkGoalReached</text>
</g>
<!-- S04&#45;&gt;S06 -->
<g id="edge3" class="edge" data-name="S04-&gt;S06">

<path fill="none" stroke="turquoise" d="M853.73,-20.4C940.6,-23.41 1061.25,-31.74 1165,-54 1210.19,-63.69 1236.34,-51.04 1263,-88.8 1293.56,-132.07 1229.04,-160.85 1169.9,-177.32"/>
<polygon fill="turquoise" stroke="turquoise" points="1169.16,-173.89 1160.4,-179.86 1170.97,-180.66 1169.16,-173.89"/>
<text text-anchor="middle" x="1324.02" y="-102.6" font-family="Times,serif" font-size="14.00">checkGoalReached</text>
</g>
<!-- S04&#45;&gt;S03 -->
<g id="edge10" class="edge" data-name="S04-&gt;S03">

<path fill="none" stroke="turquoise" d="M616.94,-18.68C490.32,-21.26 302.36,-34.46 259,-88.8 224.35,-132.22 234.63,-167.72 265.95,-213.6 296.31,-258.07 330.7,-235.79 375,-266.4 394.14,-279.63 394.68,-288.06 413,-302.4 435,-319.61 461.34,-336.57 482.61,-349.46"/>
<polygon fill="turquoise" stroke="turquoise" points="480.62,-352.35 491,-354.48 484.22,-346.34 480.62,-352.35"/>
<text text-anchor="middle" x="320.02" y="-191.4" font-family="Times,serif" font-size="14.00">checkGoalReached</text>
</g>
<!-- S04&#45;&gt;S04 -->
<g id="edge31" class="edge" data-name="S04-&gt;S04">

<path fill="none" stroke="turquoise" d="M854.25,-20.24C865.64,-19.79 872.85,-19.04 872.85,-18 872.85,-17.37 870.17,-16.84 865.5,-16.42"/>
<polygon fill="turquoise" stroke="turquoise" points="865.95,-12.94 855.76,-15.85 865.53,-19.93 865.95,-12.94"/>
<text text-anchor="middle" x="926.88" y="-13.8" font-family="Times,serif" font-size="14.00">checkGoalReached</text>
</g>
<!-- S04&#45;&gt;S04 -->
<g id="edge40" class="edge" data-name="S04-&gt;S04">

<path fill="none" stroke="black" d="M849.86,-23.39C914.98,-24.12 980.9,-22.32 980.9,-18 980.9,-13.93 922.48,-12.1 861.3,-12.5" style=""/>
<polygon fill="black" stroke="black" points="861.34,-9 851.37,-12.59 861.4,-16 861.34,-9"/>
<text text-anchor="middle" x="999.17" y="-22.2" font-family="Times,serif" font-size="14.00" style="">buy</text>
<text text-anchor="middle" x="999.17" y="-5.4" font-family="Times,serif" font-size="14.00" style="">refund</text>
</g>
<!-- S04&#45;&gt;S04 -->
<g id="edge48" class="edge" data-name="S04-&gt;S04">

<path fill="none" stroke="blue" d="M844.41,-25.67C925.58,-27.67 1017.44,-25.11 1017.44,-18 1017.44,-11.22 933.99,-8.58 855.89,-10.08" style=""/>
<polygon fill="blue" stroke="blue" points="855.85,-6.58 845.93,-10.3 856,-13.58 855.85,-6.58"/>
<text text-anchor="middle" x="1020.94" y="-13.8" font-family="Times,serif" font-size="14.00" style="">τ</text>
</g>
<!-- S04&#45;&gt;S02 -->
<g id="edge52" class="edge" data-name="S04-&gt;S02">

<path fill="none" stroke="turquoise" d="M618.56,-21.04C410.77,-26.24 0,-44.28 0,-105.8 0,-374.2 0,-374.2 0,-374.2 0,-453.6 568.92,-461.51 796.52,-461.5"/>
<polygon fill="turquoise" stroke="turquoise" points="796.24,-465 806.24,-461.49 796.23,-458 796.24,-465"/>
<text text-anchor="middle" x="54.02" y="-235.8" font-family="Times,serif" font-size="14.00">checkGoalReached</text>
</g>
<!-- S04&#45;&gt;S07 -->
<g id="edge25" class="edge" data-name="S04-&gt;S07">

<path fill="none" stroke="turquoise" d="M765.85,-35.86C798.69,-56.32 849.62,-94.19 871,-142.8 891.29,-188.95 841.48,-234.18 803.71,-260.4"/>
<polygon fill="turquoise" stroke="turquoise" points="802.03,-257.32 795.68,-265.8 805.93,-263.13 802.03,-257.32"/>
<text text-anchor="middle" x="930.02" y="-147" font-family="Times,serif" font-size="14.00">checkGoalReached</text>
</g>
<!-- S04&#45;&gt;S05 -->
<g id="edge41" class="edge" data-name="S04-&gt;S05">

<path fill="none" stroke="turquoise" d="M619.15,-21.33C546.12,-24.86 460.35,-33.43 429.95,-54 421.44,-59.76 415.3,-69 410.98,-78.09"/>
<polygon fill="turquoise" stroke="turquoise" points="407.85,-76.49 407.29,-87.07 414.33,-79.15 407.85,-76.49"/>
<text text-anchor="middle" x="484.02" y="-58.2" font-family="Times,serif" font-size="14.00">checkGoalReached</text>
</g>
<!-- S02&#45;&gt;S06 -->
<g id="edge39" class="edge" data-name="S02-&gt;S06">

<path fill="none" stroke="turquoise" d="M959.42,-452.69C1008.42,-444 1073.1,-426.43 1120,-391.2 1149.99,-368.67 1135.7,-342.58 1165.95,-320.4 1190.14,-302.67 1212.84,-326.27 1231,-302.4 1259.54,-264.88 1203.21,-234.49 1153.07,-216.07"/>
<polygon fill="turquoise" stroke="turquoise" points="1154.51,-212.87 1143.92,-212.82 1152.17,-219.46 1154.51,-212.87"/>
<text text-anchor="middle" x="1220.02" y="-324.6" font-family="Times,serif" font-size="14.00">checkGoalReached</text>
</g>
<!-- S02&#45;&gt;S03 -->
<g id="edge43" class="edge" data-name="S02-&gt;S03">

<path fill="none" stroke="turquoise" d="M839.9,-447.32C817.58,-441.01 790.88,-433.3 766.95,-426 743.74,-418.92 738.54,-415.11 715,-409.2 683.24,-401.22 648.11,-394.3 616.62,-388.77"/>
<polygon fill="turquoise" stroke="turquoise" points="617.59,-385.38 607.13,-387.12 616.39,-392.28 617.59,-385.38"/>
<text text-anchor="middle" x="821.02" y="-413.4" font-family="Times,serif" font-size="14.00">checkGoalReached</text>
</g>
<!-- S02&#45;&gt;S04 -->
<g id="edge4" class="edge" data-name="S02-&gt;S04">

<path fill="none" stroke="turquoise" d="M969.89,-459.79C1036.53,-457.02 1132.9,-448.91 1214,-426 1272.38,-409.51 1448,-346.06 1448,-285.4 1448,-285.4 1448,-285.4 1448,-105.8 1448,-47.67 1069.22,-28.16 864.21,-21.86"/>
<polygon fill="turquoise" stroke="turquoise" points="864.39,-18.36 854.29,-21.56 864.18,-25.36 864.39,-18.36"/>
<text text-anchor="middle" x="1502.02" y="-235.8" font-family="Times,serif" font-size="14.00">checkGoalReached</text>
</g>
<!-- S02&#45;&gt;S02 -->

<!-- S02&#45;&gt;S02 -->
<g id="edge7" class="edge" data-name="S05-&gt;S05" data-comment="S02-&gt;S02">

<path fill="none" stroke="rgb(64, 224, 208)" d="M535.76,-108.97C547.24,-108.5 554.41,-107.78 554.41,-106.8 554.41,-106.2 551.75,-105.7 547.07,-105.29"/>
<polygon fill="turquoise" stroke="turquoise" points="547.46,-101.81 537.27,-104.72 547.05,-108.8 547.46,-101.81"/>
<text text-anchor="middle" x="608.43" y="-102.6" font-family="Times,serif" font-size="14.00">checkGoalReached</text>
</g><g id="edge19" class="edge" data-name="S05-&gt;S05" data-comment="S02-&gt;S02">

<path fill="none" stroke="blue" d="M530.49,-112.25C597.35,-112.8 662.46,-110.98 662.46,-106.8 662.46,-102.85 604.51,-101.01 541.82,-101.27" style=""/>
<polygon fill="blue" stroke="blue" points="541.98,-97.77 532,-101.34 542.02,-104.77 541.98,-97.77"/>
<text text-anchor="middle" x="665.96" y="-102.6" font-family="Times,serif" font-size="14.00" style="">τ</text>
</g>
<!-- S02&#45;&gt;S02 -->
<g id="edge22" class="edge" data-name="S05-&gt;S05" data-comment="S02-&gt;S02">

<path fill="none" stroke="black" d="M523.6,-114.73C600.38,-116.21 680.46,-113.56 680.46,-106.8 680.46,-100.37 608.01,-97.66 534.86,-98.69" style=""/>
<polygon fill="black" stroke="black" points="535.06,-95.18 525.12,-98.85 535.17,-102.18 535.06,-95.18"/>
<text text-anchor="middle" x="698.73" y="-111" font-family="Times,serif" font-size="14.00" style="">buy</text>
<text text-anchor="middle" x="698.73" y="-94.2" font-family="Times,serif" font-size="14.00" style="">refund</text>
</g>
<!-- S02&#45;&gt;S07 -->
<g id="edge46" class="edge" data-name="S02-&gt;S07">

<path fill="none" stroke="turquoise" d="M887.72,-443.72C884.53,-413.77 873.53,-352.38 836,-320.4 830.23,-315.49 823.66,-311.05 816.9,-307.12"/>
<polygon fill="turquoise" stroke="turquoise" points="818.73,-304.13 808.27,-302.45 815.39,-310.29 818.73,-304.13"/>
<text text-anchor="middle" x="932.02" y="-369" font-family="Times,serif" font-size="14.00">checkGoalReached</text>
</g>
<!-- S02&#45;&gt;S05 -->
<g id="edge24" class="edge" data-name="S02-&gt;S05">

<path fill="none" stroke="turquoise" d="M810.96,-456.65C689.17,-448.78 460.43,-429.33 389,-391.2 329.12,-359.23 280.92,-331.26 300.95,-266.4 309.34,-239.25 321.55,-237.45 337,-213.6 354.13,-187.17 372.88,-156.45 385.82,-134.94"/>
<polygon fill="turquoise" stroke="turquoise" points="388.75,-136.86 390.89,-126.48 382.75,-133.26 388.75,-136.86"/>
<text text-anchor="middle" x="355.02" y="-280.2" font-family="Times,serif" font-size="14.00">checkGoalReached</text>
</g>
<!-- S07&#45;&gt;S06 -->
<g id="edge32" class="edge" data-name="S07-&gt;S06">

<path fill="none" stroke="turquoise" d="M810.1,-267.32C823.24,-261.92 837.48,-255.46 850,-248.4 861.01,-242.19 861.29,-236.48 872.95,-231.6 901.85,-219.5 934.56,-211.56 965.59,-206.36"/>
<polygon fill="turquoise" stroke="turquoise" points="966.11,-209.83 975.44,-204.81 965.02,-202.91 966.11,-209.83"/>
<text text-anchor="middle" x="927.02" y="-235.8" font-family="Times,serif" font-size="14.00">checkGoalReached</text>
</g>
<!-- S07&#45;&gt;S03 -->
<g id="edge51" class="edge" data-name="S07-&gt;S03">

<path fill="none" stroke="turquoise" d="M680.73,-297.27C641.41,-303.62 599.59,-311.87 581.95,-320.4 568.41,-326.95 555.49,-337.36 545.14,-347.13"/>
<polygon fill="turquoise" stroke="turquoise" points="542.82,-344.51 538.17,-354.03 547.74,-349.48 542.82,-344.51"/>
<text text-anchor="middle" x="636.02" y="-324.6" font-family="Times,serif" font-size="14.00">checkGoalReached</text>
</g>
<!-- S07&#45;&gt;S04 -->
<g id="edge11" class="edge" data-name="S07-&gt;S04">

<path fill="none" stroke="turquoise" d="M765.45,-266.13C764.19,-232.07 760.45,-153.85 751,-88.8 749.01,-75.14 745.92,-60.15 743.05,-47.57"/>
<polygon fill="turquoise" stroke="turquoise" points="746.46,-46.79 740.76,-37.85 739.65,-48.39 746.46,-46.79"/>
<text text-anchor="middle" x="813.02" y="-147" font-family="Times,serif" font-size="14.00">checkGoalReached</text>
</g>
<!-- S07&#45;&gt;S02 -->
<g id="edge29" class="edge" data-name="S07-&gt;S02">

<path fill="none" stroke="turquoise" d="M845.26,-298.21C906.1,-309.9 982.71,-329.3 1001,-355.2 1025.13,-389.37 977.98,-421.28 937.64,-440.93"/>
<polygon fill="turquoise" stroke="turquoise" points="936.24,-437.72 928.68,-445.14 939.22,-444.06 936.24,-437.72"/>
<text text-anchor="middle" x="1062.02" y="-369" font-family="Times,serif" font-size="14.00">checkGoalReached</text>
</g>
<!-- S07&#45;&gt;S07 -->
<g id="edge5" class="edge" data-name="S07-&gt;S07">

<path fill="none" stroke="black" d="M884.24,-286.64C895.63,-286.19 902.85,-285.44 902.85,-284.4 902.85,-283.77 900.17,-283.24 895.5,-282.82"/>
<polygon fill="black" stroke="black" points="895.94,-279.34 885.75,-282.25 895.53,-286.33 895.94,-279.34"/>
<text text-anchor="middle" x="921.12" y="-288.6" font-family="Times,serif" font-size="14.00">buy</text>
<text text-anchor="middle" x="921.12" y="-271.8" font-family="Times,serif" font-size="14.00">refund</text>
</g>
<!-- S07&#45;&gt;S07 -->
<g id="edge44" class="edge" data-name="S06-&gt;S06" data-comment="S07-&gt;S07">

<path fill="none" stroke="blue" d="M1209.38,-201.03C1275.44,-201.66 1340.94,-199.85 1340.94,-195.6 1340.94,-191.59 1282.65,-189.75 1220.59,-190.09" style=""/>
<polygon fill="blue" stroke="blue" points="1220.87,-186.59 1210.9,-190.16 1220.92,-193.59 1220.87,-186.59"/>
<text text-anchor="middle" x="1344.44" y="-191.4" font-family="Times,serif" font-size="14.00" style="">τ</text>
</g>
<!-- S07&#45;&gt;S07 -->
<g id="edge49" class="edge" data-name="S06-&gt;S06" data-comment="S07-&gt;S07">

<path fill="none" stroke="black" d="M1203.09,-203.47C1278.7,-205.07 1358.94,-202.45 1358.94,-195.6 1358.94,-189.08 1286.34,-186.39 1214.19,-187.53" style=""/>
<polygon fill="black" stroke="black" points="1214.54,-184.02 1204.6,-187.7 1214.67,-191.02 1214.54,-184.02"/>
<text text-anchor="middle" x="1377.2" y="-199.8" font-family="Times,serif" font-size="14.00" style="">buy</text>
<text text-anchor="middle" x="1377.2" y="-183" font-family="Times,serif" font-size="14.00" style="">refund</text>
</g>
<!-- S07&#45;&gt;S05 -->
<g id="edge21" class="edge" data-name="S07-&gt;S05">

<path fill="none" stroke="turquoise" d="M691.65,-269.97C667.17,-264.52 640.06,-257.36 616,-248.4 600.95,-242.8 599.1,-237.07 584,-231.6 548.08,-218.6 531.41,-235.27 499.95,-213.6 469.05,-192.32 480.3,-169.55 454,-142.8 450,-138.73 445.46,-134.87 440.77,-131.28"/>
<polygon fill="turquoise" stroke="turquoise" points="443.06,-128.62 432.89,-125.66 438.99,-134.32 443.06,-128.62"/>
<text text-anchor="middle" x="554.02" y="-191.4" font-family="Times,serif" font-size="14.00">checkGoalReached</text>
</g>
<!-- S05&#45;&gt;S06 -->
<g id="edge15" class="edge" data-name="S05-&gt;S06">

<path fill="none" stroke="turquoise" d="M515.61,-116.74C547.95,-121.9 582.62,-130.02 613,-142.8 624.65,-147.7 624.1,-155.21 635.95,-159.6 665.57,-170.57 835.72,-181.54 958.55,-188.2"/>
<polygon fill="turquoise" stroke="turquoise" points="958.23,-191.69 968.4,-188.73 958.6,-184.7 958.23,-191.69"/>
<text text-anchor="middle" x="690.02" y="-147" font-family="Times,serif" font-size="14.00">checkGoalReached</text>
</g>
<!-- S05&#45;&gt;S03 -->
<g id="edge20" class="edge" data-name="S05-&gt;S03">

<path fill="none" stroke="turquoise" d="M409.9,-125.21C430.28,-170.1 484.72,-290.06 509.46,-344.56"/>
<polygon fill="turquoise" stroke="turquoise" points="506.18,-345.81 513.5,-353.47 512.56,-342.92 506.18,-345.81"/>
<text text-anchor="middle" x="519.02" y="-235.8" font-family="Times,serif" font-size="14.00">checkGoalReached</text>
</g>
<!-- S05&#45;&gt;S04 -->
<g id="edge34" class="edge" data-name="S05-&gt;S04">

<path fill="none" stroke="turquoise" d="M464.43,-90.42C488.67,-84.39 516.65,-77.35 542,-70.8 584.39,-59.84 631.89,-47.17 669.27,-37.1"/>
<polygon fill="turquoise" stroke="turquoise" points="669.83,-40.57 678.57,-34.59 668,-33.82 669.83,-40.57"/>
<text text-anchor="middle" x="655.02" y="-58.2" font-family="Times,serif" font-size="14.00">checkGoalReached</text>
</g>
<!-- S05&#45;&gt;S02 -->
<g id="edge13" class="edge" data-name="S05-&gt;S02">

<path fill="none" stroke="turquoise" d="M371.43,-124.79C363.84,-129.92 356.13,-136.02 350,-142.8 326.04,-169.28 340.25,-191.75 312,-213.6 272.74,-243.97 125.62,-227.37 94.95,-266.4 85.06,-278.98 89.06,-287.52 94.95,-302.4 122.69,-372.46 142.64,-394.3 211,-426 262.7,-449.98 623.26,-457.7 796.49,-460.05"/>
<polygon fill="turquoise" stroke="turquoise" points="796.32,-463.54 806.36,-460.18 796.41,-456.54 796.32,-463.54"/>
<text text-anchor="middle" x="149.02" y="-280.2" font-family="Times,serif" font-size="14.00">checkGoalReached</text>
</g>
<!-- S05&#45;&gt;S07 -->
<g id="edge26" class="edge" data-name="S05-&gt;S07">

<path fill="none" stroke="turquoise" d="M470.86,-122.66C512.63,-133.68 565.83,-151.38 608,-177.6 627.2,-189.54 625.99,-199.87 643.95,-213.6 667.94,-231.94 697.24,-248.85 721.12,-261.44"/>
<polygon fill="turquoise" stroke="turquoise" points="719.5,-264.54 729.98,-266.03 722.72,-258.32 719.5,-264.54"/>
<text text-anchor="middle" x="698.02" y="-191.4" font-family="Times,serif" font-size="14.00">checkGoalReached</text>
</g>
<!-- S05&#45;&gt;S05 -->

<!-- S05&#45;&gt;S05 -->
<g id="edge6" class="edge" data-name="S07-&gt;S07" data-comment="S05-&gt;S05">

<path fill="none" stroke="turquoise" d="M879.73,-289.92C913.07,-289.68 939.39,-287.84 939.39,-284.4 939.39,-281.36 918.88,-279.57 891.13,-279.03" style=""/>
<polygon fill="turquoise" stroke="turquoise" points="891.29,-275.53 881.24,-278.9 891.19,-282.53 891.29,-275.53"/>
<text text-anchor="middle" x="993.41" y="-280.2" font-family="Times,serif" font-size="14.00" style="">checkGoalReached</text>
</g>
<!-- S05&#45;&gt;S05 -->
<g id="edge33" class="edge" data-name="S07-&gt;S07" data-comment="S05-&gt;S05">

<path fill="none" stroke="blue" d="M874.41,-292.07C955.58,-294.07 1047.43,-291.51 1047.43,-284.4 1047.43,-277.62 963.99,-274.98 885.88,-276.48" style=""/>
<polygon fill="blue" stroke="blue" points="885.84,-272.98 875.92,-276.7 886,-279.98 885.84,-272.98"/>
<text text-anchor="middle" x="1050.93" y="-280.2" font-family="Times,serif" font-size="14.00" style="">τ</text>
</g>
<!-- S00 -->
<g id="node8" class="node" pointer-events="visible" data-name="S00">

<ellipse fill="none" stroke="black" cx="1156" cy="-639.6" rx="27" ry="18"/>
<text text-anchor="middle" x="1156" y="-635.4" font-family="Times,serif" font-size="14.00">S00</text>
</g>
<!-- S00&#45;&gt;S01 -->
<g id="edge35" class="edge" data-name="S00-&gt;S01">

<path fill="none" stroke="blue" d="M1156,-621.45C1156,-609.76 1156,-593.99 1156,-580.42"/>
<polygon fill="blue" stroke="blue" points="1159.5,-580.72 1156,-570.72 1152.5,-580.72 1159.5,-580.72"/>
<text text-anchor="middle" x="1187.49" y="-591" font-family="Times,serif" font-size="14.00">constructor</text>
</g>
</g>
</svg>