<?xml version="1.0" standalone="no"?>
<svg xmlns="http://www.w3.org/2000/svg" xmlns:xlink="http://www.w3.org/1999/xlink" width="787pt" height="721pt" viewBox="0.00 0.00 787.12 720.95">
<g id="graph0" class="graph" transform="translate(4,716.9500122070312) scale(1)" data-name="">
<polygon fill="white" stroke="none" points="-4,4 -4,-716.95 783.12,-716.95 783.12,4 -4,4" style=""/>
<!-- S00 -->
<g id="node1" class="node" pointer-events="visible" data-name="S00">

<ellipse fill="none" stroke="black" cx="506.7" cy="-694.95" rx="27" ry="18" style=""/>
<text text-anchor="middle" x="506.7" y="-690.75" font-family="Times,serif" font-size="14.00" style="">Init</text>
</g>
<!-- S53 -->
<g id="node6" class="node" pointer-events="visible" data-name="S53">

<ellipse fill="none" stroke="black" cx="506.7" cy="-582.86" rx="162.81" ry="41.09" style=""/>
<text text-anchor="middle" x="506.7" y="-595.46" font-family="Times,serif" font-size="14.00" style="">setupCrowdsale &amp; !buy</text>
<text text-anchor="middle" x="506.7" y="-578.66" font-family="Times,serif" font-size="14.00" style=""> &amp; !checkGoalReached &amp; !refund</text>
<text text-anchor="middle" x="506.7" y="-561.86" font-family="Times,serif" font-size="14.00" style=""> &amp; τ &amp; e._isCrowdSaleClosed = False</text>
</g>
<!-- S00&#45;&gt;S53 -->
<g id="edge12" class="edge" data-name="S00-&gt;S53">

<path fill="none" stroke="blue" d="M506.7,-676.75C506.7,-665.57 506.7,-650.35 506.7,-635.47" style=""/>
<polygon fill="blue" stroke="blue" points="510.2,-635.74 506.7,-625.74 503.2,-635.74 510.2,-635.74" style=""/>
<text text-anchor="middle" x="538.19" y="-646.35" font-family="Times,serif" font-size="14.00" style="">constructor</text>
</g>
<!-- S08 -->
<g id="node2" class="node" pointer-events="visible" data-name="S08">

<ellipse fill="none" stroke="black" cx="160.7" cy="-176.69" rx="160.89" ry="41.09" style=""/>
<text text-anchor="middle" x="160.7" y="-189.29" font-family="Times,serif" font-size="14.00" style="">!setupCrowdsale &amp; !buy</text>
<text text-anchor="middle" x="160.7" y="-172.49" font-family="Times,serif" font-size="14.00" style=""> &amp; checkGoalReached &amp; refund</text>
<text text-anchor="middle" x="160.7" y="-155.69" font-family="Times,serif" font-size="14.00" style=""> &amp; τ &amp; e._isCrowdSaleClosed = True</text>
</g>
<!-- S08&#45;&gt;S08 -->
<g id="edge13" class="edge" data-name="S08-&gt;S08">

<path fill="none" stroke="turquoise" d="M320.97,-181.34C332.4,-180.29 339.39,-178.73 339.39,-176.69 339.39,-175.44 336.8,-174.37 332.18,-173.49" style=""/>
<polygon fill="turquoise" stroke="turquoise" points="332.84,-170.05 322.47,-172.22 331.93,-176.99 332.84,-170.05" style=""/>
<text text-anchor="middle" x="357.66" y="-172.49" font-family="Times,serif" font-size="14.00" style="">refund</text>
</g>
<!-- S08&#45;&gt;S08 -->
<g id="edge14" class="edge" data-name="S08-&gt;S08">

<path fill="none" stroke="blue" d="M314.56,-189.04C349.78,-187.88 375.93,-183.76 375.93,-176.69 375.93,-170.39 355.19,-166.43 325.77,-164.82" style=""/>
<polygon fill="blue" stroke="blue" points="326.21,-161.34 316.07,-164.4 325.91,-168.33 326.21,-161.34" style=""/>
<text text-anchor="middle" x="429.95" y="-180.89" font-family="Times,serif" font-size="14.00" style="">checkGoalReached</text>
<text text-anchor="middle" x="429.95" y="-164.09" font-family="Times,serif" font-size="14.00" style="">t</text>
</g>
<!-- S18 -->
<g id="node3" class="node" pointer-events="visible" data-name="S18">

<ellipse fill="none" stroke="black" cx="349.7" cy="-41.3" rx="160.89" ry="41.09" style=""/>
<text text-anchor="middle" x="349.7" y="-53.9" font-family="Times,serif" font-size="14.00" style="">!setupCrowdsale &amp; !buy</text>
<text text-anchor="middle" x="349.7" y="-37.1" font-family="Times,serif" font-size="14.00" style=""> &amp; checkGoalReached &amp; !refund</text>
<text text-anchor="middle" x="349.7" y="-20.3" font-family="Times,serif" font-size="14.00" style=""> &amp; τ &amp; e._isCrowdSaleClosed = True</text>
</g>
<!-- S08&#45;&gt;S18 -->
<g id="edge5" class="edge" data-name="S08-&gt;S18">

<path fill="none" stroke="turquoise" d="M214.6,-137.64C237.05,-121.8 263.26,-103.3 286.59,-86.83" style=""/>
<polygon fill="turquoise" stroke="turquoise" points="288.33,-89.89 294.48,-81.26 284.29,-84.17 288.33,-89.89" style=""/>
<text text-anchor="middle" x="284.96" y="-104.79" font-family="Times,serif" font-size="14.00" style="">refund</text>
</g>
<!-- S18&#45;&gt;S18 -->
<g id="edge4" class="edge" data-name="S18-&gt;S18">

<path fill="none" stroke="blue" d="M506.23,-51.25C519.86,-49.14 528.39,-45.82 528.39,-41.3 528.39,-38.18 524.36,-35.64 517.41,-33.67" style=""/>
<polygon fill="blue" stroke="blue" points="518.21,-30.27 507.71,-31.65 516.78,-37.12 518.21,-30.27" style=""/>
<text text-anchor="middle" x="582.42" y="-45.5" font-family="Times,serif" font-size="14.00" style="">checkGoalReached</text>
<text text-anchor="middle" x="582.42" y="-28.7" font-family="Times,serif" font-size="14.00" style="">t</text>
</g>
<!-- S44 -->
<g id="node4" class="node" pointer-events="visible" data-name="S44">

<ellipse fill="none" stroke="black" cx="311.7" cy="-447.47" rx="162.81" ry="41.09" style=""/>
<text text-anchor="middle" x="311.7" y="-460.07" font-family="Times,serif" font-size="14.00" style="">!setupCrowdsale &amp; buy</text>
<text text-anchor="middle" x="311.7" y="-443.27" font-family="Times,serif" font-size="14.00" style=""> &amp; checkGoalReached &amp; !refund</text>
<text text-anchor="middle" x="311.7" y="-426.47" font-family="Times,serif" font-size="14.00" style=""> &amp; τ &amp; e._isCrowdSaleClosed = False</text>
</g>
<!-- S44&#45;&gt;S44 -->
<g id="edge7" class="edge" data-name="S44-&gt;S44">

<path fill="none" stroke="blue" d="M474.5,-450.54C485.75,-449.83 492.6,-448.81 492.6,-447.47 492.6,-446.67 490.19,-445.98 485.87,-445.41" style=""/>
<polygon fill="blue" stroke="blue" points="486.28,-441.93 476.01,-444.53 485.66,-448.9 486.28,-441.93" style=""/>
<text text-anchor="middle" x="546.62" y="-443.27" font-family="Times,serif" font-size="14.00" style="">checkGoalReached</text>
</g>
<!-- S44&#45;&gt;S44 -->
<g id="edge10" class="edge" data-name="S44-&gt;S44">

<path fill="none" stroke="black" d="M471.23,-455.91C539.19,-456.21 600.65,-453.39 600.65,-447.47 600.65,-441.87 545.95,-439.05 482.71,-439" style=""/>
<polygon fill="black" stroke="black" points="482.74,-435.5 472.75,-439.02 482.75,-442.5 482.74,-435.5" style=""/>
<text text-anchor="middle" x="611.15" y="-443.27" font-family="Times,serif" font-size="14.00" style="">buy</text>
</g>
<!-- S44&#45;&gt;S44 -->
<g id="edge11" class="edge" data-name="S44-&gt;S44">

<path fill="none" stroke="turquoise" d="M467.38,-459.95C546.19,-461.16 621.65,-457 621.65,-447.47 621.65,-438.39 553.38,-434.19 478.89,-434.84" style=""/>
<polygon fill="turquoise" stroke="turquoise" points="478.85,-431.34 468.89,-434.96 478.94,-438.34 478.85,-431.34" style=""/>
<text text-anchor="middle" x="625.15" y="-443.27" font-family="Times,serif" font-size="14.00" style="">τ</text>
</g>
<!-- S50 -->
<g id="node5" class="node" pointer-events="visible" data-name="S50">

<ellipse fill="none" stroke="black" cx="348.7" cy="-312.08" rx="162.81" ry="41.09" style=""/>
<text text-anchor="middle" x="348.7" y="-324.68" font-family="Times,serif" font-size="14.00" style="">!setupCrowdsale &amp; !buy</text>
<text text-anchor="middle" x="348.7" y="-307.88" font-family="Times,serif" font-size="14.00" style=""> &amp; checkGoalReached &amp; !refund</text>
<text text-anchor="middle" x="348.7" y="-291.08" font-family="Times,serif" font-size="14.00" style=""> &amp; τ &amp; e._isCrowdSaleClosed = False</text>
</g>
<!-- S44&#45;&gt;S50 -->
<g id="edge1" class="edge" data-name="S44-&gt;S50">

<path fill="none" stroke="black" d="M290.68,-406.51C287.24,-394.98 286.1,-382.51 290.7,-371.37 292.18,-367.76 294.02,-364.26 296.1,-360.89" style=""/>
<polygon fill="black" stroke="black" points="298.79,-363.14 301.7,-352.95 293.07,-359.11 298.79,-363.14" style=""/>
<text text-anchor="middle" x="301.2" y="-375.57" font-family="Times,serif" font-size="14.00" style="">buy</text>
</g>
<!-- S44&#45;&gt;S50 -->
<g id="edge9" class="edge" data-name="S44-&gt;S50">

<path fill="none" stroke="turquoise" d="M322.9,-406.08C326.56,-392.89 330.67,-378.07 334.52,-364.19" style=""/>
<polygon fill="turquoise" stroke="turquoise" points="337.83,-365.35 337.13,-354.78 331.08,-363.48 337.83,-365.35" style=""/>
<text text-anchor="middle" x="336.2" y="-375.57" font-family="Times,serif" font-size="14.00" style="">τ</text>
</g>
<!-- S50&#45;&gt;S08 -->
<g id="edge6" class="edge" data-name="S50-&gt;S08">

<path fill="none" stroke="turquoise" d="M294.82,-272.85C272.6,-257.09 246.7,-238.71 223.62,-222.33" style=""/>
<polygon fill="turquoise" stroke="turquoise" points="225.67,-219.49 215.49,-216.56 221.62,-225.2 225.67,-219.49" style=""/>
<text text-anchor="middle" x="320.72" y="-240.18" font-family="Times,serif" font-size="14.00" style="">checkGoalReached</text>
</g>
<!-- S50&#45;&gt;S18 -->
<g id="edge15" class="edge" data-name="S50-&gt;S18">

<path fill="none" stroke="turquoise" d="M442.86,-278.12C469.52,-263.93 495.42,-244.37 510.7,-217.98 529.08,-186.21 529.04,-167.19 510.7,-135.39 497.35,-112.26 475.83,-94.37 452.81,-80.73" style=""/>
<polygon fill="turquoise" stroke="turquoise" points="454.62,-77.73 444.19,-75.89 451.19,-83.84 454.62,-77.73" style=""/>
<text text-anchor="middle" x="578.72" y="-172.49" font-family="Times,serif" font-size="14.00" style="">checkGoalReached</text>
</g>
<!-- S50&#45;&gt;S44 -->
<g id="edge8" class="edge" data-name="S50-&gt;S44">

<path fill="none" stroke="turquoise" d="M347.78,-353.36C346.76,-364.78 344.93,-377.11 341.7,-388.17 340.94,-390.75 340.07,-393.35 339.11,-395.95" style=""/>
<polygon fill="turquoise" stroke="turquoise" points="335.91,-394.54 335.32,-405.12 342.38,-397.22 335.91,-394.54" style=""/>
<text text-anchor="middle" x="349.2" y="-375.57" font-family="Times,serif" font-size="14.00" style="">τ</text>
</g>
<!-- S50&#45;&gt;S50 -->
<g id="edge2" class="edge" data-name="S50-&gt;S50">

<path fill="none" stroke="turquoise" d="M507.16,-322.03C520.97,-319.92 529.6,-316.6 529.6,-312.08 529.6,-308.89 525.33,-306.31 518,-304.32" style=""/>
<polygon fill="turquoise" stroke="turquoise" points="519.14,-300.98 508.64,-302.43 517.75,-307.84 519.14,-300.98" style=""/>
<text text-anchor="middle" x="583.62" y="-316.28" font-family="Times,serif" font-size="14.00" style="">checkGoalReached</text>
<text text-anchor="middle" x="583.62" y="-299.48" font-family="Times,serif" font-size="14.00" style="">t</text>
</g>
<!-- S53&#45;&gt;S44 -->
<g id="edge16" class="edge" data-name="S53-&gt;S44">

<path fill="none" stroke="blue" d="M451.08,-543.81C427.82,-527.9 400.64,-509.31 376.49,-492.79" style=""/>
<polygon fill="blue" stroke="blue" points="378.53,-489.94 368.3,-487.19 374.58,-495.72 378.53,-489.94" style=""/>
<text text-anchor="middle" x="466.41" y="-510.96" font-family="Times,serif" font-size="14.00" style="">setupCrowdsale</text>
</g>
<!-- S53&#45;&gt;S50 -->
<g id="edge17" class="edge" data-name="S53-&gt;S50">

<path fill="none" stroke="blue" d="M603.7,-549.52C631.18,-535.36 657.89,-515.66 673.7,-488.76 692.29,-457.11 695.79,-435.48 673.7,-406.17 651.22,-376.35 570.8,-353.18 495.58,-337.41" style=""/>
<polygon fill="blue" stroke="blue" points="496.51,-334.02 486.01,-335.44 495.1,-340.88 496.51,-334.02" style=""/>
<text text-anchor="middle" x="734.41" y="-443.27" font-family="Times,serif" font-size="14.00" style="">setupCrowdsale</text>
</g>
<!-- S53&#45;&gt;S53 -->
<g id="edge3" class="edge" data-name="S53-&gt;S53">

<path fill="none" stroke="blue" d="M665.16,-592.81C678.97,-590.7 687.6,-587.38 687.6,-582.86 687.6,-579.67 683.33,-577.09 676,-575.1" style=""/>
<polygon fill="blue" stroke="blue" points="677.14,-571.76 666.64,-573.21 675.75,-578.62 677.14,-571.76" style=""/>
<text text-anchor="middle" x="691.1" y="-578.66" font-family="Times,serif" font-size="14.00" style="">τ</text>
</g>
</g>
</svg>